<?xml version="1.0" encoding="utf-8"?>
<!-- Generator: Adobe Illustrator 23.0.5, SVG Export Plug-In . SVG Version: 6.00 Build 0)  -->
<svg version="1.1" id="Layer_1" xmlns="http://www.w3.org/2000/svg" xmlns:xlink="http://www.w3.org/1999/xlink" x="0px" y="0px"
	 viewBox="0 0 112.6 109.7" style="enable-background:new 0 0 112.6 109.7;" xml:space="preserve">
<style type="text/css">
	.st0{fill:#65C6F0;}
	.st1{fill:#939598;}
	.st2{fill:#8C8E90;}
	.st3{fill:#A4D4F1;}
	.st4{fill:#01AFEE;}
	.st5{fill:#00B3EE;}
	.st6{fill:#80CCF0;}
	.st7{fill:#A1A3A6;}
	.st8{fill:#5F5F61;}
	.st9{fill:#48C1EF;}
	.st10{fill:#6C6D6F;}
	.st11{fill:#626365;}
	.st12{fill:#07B1ED;}
	.st13{fill:#5F6061;}
	.st14{fill:#606163;}
	.st15{fill:#8BCEEF;}
	.st16{fill:#01B8EE;}
	.st17{fill:#797A7B;}
	.st18{fill:#7A7C7C;}
	.st19{fill:#7B7D7E;}
	.st20{fill:#2DC0EF;}
	.st21{fill:#30BFEE;}
	.st22{fill:#27BEEE;}
	.st23{fill:#37C0EB;}
	.st24{fill:#16BDEF;}
	.st25{fill:#26BEEF;}
	.st26{fill:#AEAEB0;}
	.st27{fill:#12BDEE;}
	.st28{fill:#A9ABAC;}
	.st29{fill:#1DBEEF;}
	.st30{fill:#8ECDEA;}
	.st31{fill:#2DBEEE;}
	.st32{fill:#21C0EF;}
	.st33{fill:#94D2ED;}
	.st34{fill:#1DBDEF;}
	.st35{fill:#83CCED;}
	.st36{fill:#2CA6D0;}
	.st37{fill:#A2A3A6;}
	.st38{fill:#17BDEF;}
	.st39{fill:#5AC3E4;}
	.st40{fill:#16BDEE;}
	.st41{fill:#8CCDEA;}
	.st42{fill:#42C3EF;}
	.st43{fill:#0CBCEF;}
	.st44{fill:#9FD9F4;}
	.st45{fill:#14BDEE;}
	.st46{fill:#A5A6A9;}
	.st47{fill:#15BDEF;}
	.st48{fill:#A8A9AC;}
	.st49{fill:#B6DBF1;}
	.st50{fill:#696B6E;}
</style>
<path class="st0" d="M80.6,5.6c0.2,0,0.4,0.1,0.7,0.1c0.8,0.2,1.6,0.4,2.4,0.7c0.1,0,0.2,0.1,0.3,0.1c0.2,0.1,0.4,0.2,0.7,0.2
	C85,6.9,85.3,6.9,85.5,7c0.5,0.2,1,0.4,1.4,0.6c0.5,0.2,1,0.5,1.5,0.7c0.4,0.1,0.7,0.3,1.1,0.5c0.4,0.2,0.8,0.5,1.3,0.7
	c0.5,0.3,1.1,0.6,1.6,1c0.3,0.2,0.6,0.4,1,0.6c0.4,0.3,0.7,0.5,1.1,0.9c0.1,0.1,0.2,0.2,0.4,0.2c0.4,0.3,0.8,0.6,1.2,0.9
	c0.3,0.2,0.5,0.5,0.8,0.7c0.4,0.3,0.8,0.7,1.1,1.1c0.2,0.2,0.4,0.4,0.6,0.5c0.5,0.4,0.9,0.9,1.3,1.4c0.2,0.2,0.3,0.3,0.5,0.5
	c0.1,0.1,0.1,0.2,0.2,0.2c0.1,0.1,0.3,0.3,0.4,0.4c0.4,0.4,0.7,0.8,1,1.3c0.2,0.3,0.4,0.6,0.7,0.8c0.2,0.2,0.3,0.5,0.5,0.8
	c0.1,0.2,0.2,0.3,0.4,0.5c0.3,0.5,0.6,0.9,0.9,1.4c0,0.1,0.1,0.1,0.1,0.2c0.2,0.5,0.2,0.5,0.2,0.7c0.1,0,0.1,0.1,0.2,0.1
	c0.1,0.2,0.1,0.2,0.2,0.4c0,0.1,0.1,0.2,0.1,0.2c0,0.1,0.1,0.2,0.1,0.3c0.1,0.2,0.2,0.3,0.2,0.5c0.1,0.1,0.1,0.1,0.1,0.3
	c0.2,0.4,0.4,0.7,0.5,1.1c0.3,0.6,0.5,1.1,0.7,1.7c0.1,0.2,0.2,0.4,0.3,0.7c0.4,1,0.7,2,1,3c0.1,0.3,0.1,0.5,0.2,0.8
	c0.4,1.5,0.7,2.9,0.9,4.4c0,0.1,0,0.2,0,0.3c0.1,0.8,0.1,1.5,0.1,2.3c0.1,0,0.1,0,0.2,0c0,1.3,0,2.6,0,3.9c-0.1,0-0.1,0-0.2,0
	c0,0.1,0,0.1,0,0.2c0,0.9-0.1,1.8-0.2,2.7c0,0.1,0,0.1,0,0.2c-0.4,3.7-0.4,3.7-1,4.3c0.1-0.7,0.1-1.3,0.2-2
	c0.5-3.8,0.3-7.6-0.4-11.4c0-0.1-0.1-0.3-0.1-0.4c-0.2-1.3-0.6-2.5-1-3.7c-0.1-0.3-0.2-0.6-0.3-0.9c-0.1-0.2-0.1-0.4-0.2-0.6
	c0-0.1-0.1-0.2-0.1-0.3c-0.2-0.5-0.4-1-0.6-1.5c-0.1-0.2-0.2-0.4-0.3-0.7c0-0.1-0.1-0.2-0.1-0.3c-0.1-0.2-0.2-0.4-0.3-0.7
	c-0.2-0.4-0.4-0.8-0.6-1.1c-0.2-0.4-0.5-0.8-0.7-1.2c-0.1-0.3-0.3-0.6-0.5-0.8c-0.3-0.5-0.6-0.9-0.9-1.4c-0.2-0.4-0.5-0.7-0.8-1.1
	c-0.4-0.6-0.4-0.6-0.4-0.8c-0.1,0-0.1,0-0.2-0.1c-0.4-0.2-0.6-0.6-0.8-0.9c-0.1-0.3-0.4-0.4-0.6-0.6c0-0.1,0-0.1,0-0.2
	c-0.1,0-0.1,0-0.2,0c0-0.1,0-0.1,0-0.2c-0.1,0-0.2-0.1-0.3-0.1c-0.2-0.2-0.3-0.3-0.5-0.5c-0.1-0.1-0.3-0.3-0.4-0.4
	c-0.2-0.2-0.4-0.4-0.6-0.7c-0.3-0.3-0.6-0.5-0.9-0.8c-0.2-0.2-0.2-0.2-0.4-0.4c-0.2-0.2-0.5-0.4-0.8-0.6c-0.3-0.2-0.5-0.4-0.7-0.6
	c-0.2-0.1-0.2-0.1-0.4-0.3c-0.3-0.2-0.6-0.4-0.9-0.6c-0.5-0.4-1-0.7-1.5-1c-0.3-0.2-0.6-0.4-0.9-0.6c-0.3-0.2-0.5-0.3-0.8-0.4
	c-0.3-0.2-0.7-0.4-1-0.6c-0.5-0.3-1-0.5-1.6-0.7c-0.4-0.2-0.9-0.4-1.3-0.6c-0.2-0.1-0.2-0.1-0.5-0.1c0.4,0.5,1,0.7,1.5,1
	c0.2,0.1,0.2,0.1,0.5,0.3c0,0.1,0,0.1,0,0.2c0.1,0,0.1,0,0.2,0.1c0.3,0.1,0.7,0.3,1,0.5c0,0.1,0,0.1,0,0.2c0.1,0,0.1,0.1,0.2,0.1
	c0.2,0.1,0.4,0.2,0.6,0.4c0.1,0.1,0.1,0.1,0.2,0.2c0.1,0.1,0.1,0.1,0.2,0.2c0.1,0.1,0.1,0.1,0.2,0.2c0.6,0.4,1.1,0.8,1.6,1.3
	c0.1,0.1,0.3,0.2,0.4,0.3c0.3,0.3,0.6,0.6,0.9,0.8c0.1,0.1,0.1,0.1,0.2,0.2c0.4,0.4,0.7,0.7,1.1,1.1c0.2,0.2,0.3,0.4,0.5,0.5
	c0.3,0.3,0.3,0.3,0.4,0.6c0.1,0.1,0.2,0.2,0.3,0.3c1.7,1.7,1.7,1.7,1.7,2.4c0.1,0,0.1,0,0.2,0c0.1,0.1,0.1,0.1,0.1,0.2
	c0.3,0.6,0.3,0.6,0.7,1.1c0.3,0.3,0.4,0.7,0.6,1c0.1,0.2,0.3,0.5,0.4,0.7c0.6,1.1,1.2,2.2,1.7,3.4c0.1,0.1,0.1,0.2,0.2,0.3
	c0.2,0.5,0.4,1,0.5,1.4c0.1,0.4,0.3,0.9,0.4,1.3c0.1,0.2,0.1,0.4,0.2,0.7c0,0.1,0.1,0.2,0.1,0.3c0.2,0.7,0.4,1.4,0.5,2.2
	c0,0.2,0.1,0.5,0.1,0.7c0,0.1,0,0.2,0.1,0.4c0,0.2,0.1,0.5,0.1,0.7c0.3,1.8,0.5,3.6,0.5,5.4c0,0.1,0,0.3,0,0.4c0,0.7,0,1.5-0.1,2.2
	c0,0.4,0,0.7-0.1,1.1c0,0.2-0.1,0.5-0.1,0.7c0,0.1,0,0.3,0,0.4c0,0.3-0.1,0.6-0.1,0.8c0,0.1,0,0.2,0,0.3c-0.1,0.4-0.1,0.4-0.2,0.7
	c-0.1,0.4-0.2,0.7-0.2,1.1c0,0.1,0,0.3-0.1,0.4c0,0.1,0,0.2,0,0.3c-0.1,0-0.1,0-0.2,0c0,0.1,0,0.1,0.1,0.2c0.1,0.3,0,0.5-0.2,0.8
	c-0.1,0-0.1,0-0.2,0c0,0.1,0,0.1,0.1,0.2c0,0.3,0,0.4-0.2,0.7c-0.1,0.2-0.2,0.4-0.2,0.7c0,0.1-0.1,0.2-0.1,0.3
	c-0.1,0.3-0.2,0.6-0.3,0.9c-0.2,0.6-0.4,1.1-0.6,1.6c0,0.1-0.1,0.2-0.1,0.3c-0.3,0.7-0.7,1.5-1.1,2.2c0,0.1-0.1,0.1-0.1,0.2
	c-0.4,0.7-0.8,1.4-1.2,2.1c-0.1,0.2-0.2,0.4-0.4,0.6c-0.1,0.3-0.3,0.5-0.5,0.7c-0.2,0.3-0.4,0.5-0.6,0.8c-0.6,0.9-1.3,1.7-2,2.5
	c-0.1,0.1-0.2,0.2-0.3,0.3c-0.2,0.3-0.5,0.5-0.7,0.8c-0.1,0.1-0.3,0.3-0.4,0.4c-0.1,0.1-0.3,0.3-0.4,0.4c-0.1,0.1-0.2,0.2-0.2,0.2
	c-0.3,0.3-0.6,0.6-1,0.9c-0.1,0-0.1,0.1-0.2,0.2c-0.1,0.1-0.2,0.2-0.4,0.3c-0.1,0.1-0.2,0.2-0.4,0.3c-0.1,0.1-0.1,0.1-0.2,0.2
	c-0.1,0.1-0.1,0.1-0.2,0.2c-0.1,0.1-0.1,0.1-0.3,0.1c0,0.1,0,0.1,0,0.2c-0.2,0.1-0.2,0.1-0.4,0.3c-0.3,0.2-0.7,0.4-1,0.7
	c-0.3,0.2-0.6,0.4-0.9,0.6c-0.2,0.1-0.4,0.3-0.6,0.4c-0.5,0.3-1,0.6-1.5,0.9c-0.4,0.2-0.7,0.4-1.1,0.6c-0.4,0.3-0.9,0.5-1.3,0.6
	c-0.3,0.1-0.6,0.3-0.9,0.4c-0.6,0.3-1.2,0.5-1.9,0.7c-0.3,0.1-0.7,0.2-1,0.4c-1.7,0.7-3.5,1-5.3,1.3c-0.1,0-0.2,0-0.3,0.1
	c-0.3,0.1-0.7,0.1-1,0.2c-0.2,0-0.2,0-0.4,0.1c-1.3,0.2-2.7,0.2-4,0.2c-0.1,0-0.2,0-0.4,0c-2.6,0-5.1-0.3-7.6-0.9
	c-0.5-0.1-1-0.2-1.5-0.3c-0.4-0.1-0.8-0.2-1.2-0.3c0-0.1,0-0.1,0-0.2c0.2-0.1,0.4-0.3,0.7-0.4c0.1,0,0.1-0.1,0.2-0.1
	c0.3-0.2,0.6-0.3,0.9-0.5c0.3-0.1,0.6-0.3,0.9-0.5c0.5-0.3,0.5-0.3,0.7-0.3c0-0.1,0-0.1,0-0.2c0.1,0,0.2-0.1,0.3-0.1
	c0.4-0.2,0.8-0.5,1.1-0.8c0.2-0.2,0.4-0.3,0.7-0.4c0.4-0.3,0.8-0.6,1.2-0.9c0.1-0.1,0.1-0.1,0.2-0.2c0.5-0.4,0.9-0.8,1.4-1.2
	c0.2-0.2,0.4-0.4,0.6-0.6c0.2-0.2,0.4-0.4,0.6-0.6c0.3-0.3,0.5-0.6,0.9-0.8c0.2-0.2,0.4-0.4,0.6-0.7c0.2-0.2,0.3-0.3,0.5-0.5
	c1-1.1,1-1.1,1.9-2.3c0.3-0.5,0.5-0.9,1.1-1.1c0.2,0,0.4-0.1,0.6-0.1c0.9-0.1,1.7-0.4,2.5-0.7c0.1,0,0.1,0,0.2-0.1
	c1-0.3,1.9-0.7,2.8-1.2c0.3-0.1,0.3-0.1,0.5-0.1c0-0.1,0-0.1,0-0.2c0.2-0.1,0.3-0.1,0.5-0.2c0.3-0.1,0.5-0.3,0.8-0.5
	c0.1-0.1,0.2-0.1,0.3-0.2c1.1-0.7,2.4-1.6,3.2-2.7c0.2-0.2,0.3-0.4,0.5-0.5c0.7-0.6,1.4-1.4,1.8-2.2c0.1,0,0.1,0,0.2,0
	c0-0.1,0-0.2,0.1-0.2c0.1-0.3,0.3-0.5,0.5-0.8c0.4-0.6,0.8-1.3,1.1-2c0.1-0.2,0.2-0.3,0.2-0.5c0.6-1.1,0.9-2.2,1.2-3.4
	c0-0.1,0-0.2,0.1-0.2c0.5-1.7,0.7-3.4,0.7-5.2c0-0.3,0-0.6,0-1c0-1.8-0.2-3.6-0.8-5.3c0-0.1-0.1-0.2-0.1-0.3
	c-0.1-0.3-0.2-0.6-0.3-0.8c0-0.1,0-0.1-0.1-0.2c-0.2-0.8-0.6-1.5-0.9-2.2c-0.2-0.3-0.3-0.6-0.4-0.9c-0.2-0.4-0.4-0.7-0.7-1.1
	c-0.2-0.3-0.4-0.5-0.5-0.8c-0.3-0.5-0.7-0.9-1.1-1.3c-0.2-0.2-0.2-0.2-0.4-0.5c-0.2-0.3-0.3-0.4-0.6-0.6c-0.3-0.3-0.6-0.5-0.8-0.8
	c-0.3-0.4-0.7-0.7-1.1-1.1c0,0.2,0.4,0.5,0.5,0.7c0,0.1,0.1,0.1,0.1,0.2c0.2,0.3,0.5,0.5,0.7,0.7c0.2,0.2,0.4,0.4,0.5,0.7
	c0.2,0.3,0.3,0.5,0.5,0.7c0.3,0.4,0.5,0.7,0.7,1.1c0.2,0.5,0.5,1,0.9,1.4c0.2,0.2,0.2,0.5,0.3,0.7c0.1,0.3,0.2,0.6,0.4,1
	c1.1,2.2,1.6,4.8,1.8,7.3c0,0.1,0,0.1,0,0.2c0.2,3-0.3,5.9-1.2,8.7c-0.1-0.4,0-0.8,0-1.2c0.3-1.5,0.4-2.9,0.4-4.4c0-0.1,0-0.1,0-0.2
	c0-1.2-0.1-2.3-0.3-3.5c0-0.2-0.1-0.4-0.1-0.7c-0.1-1-0.4-1.8-0.7-2.7c0-0.1-0.1-0.2-0.1-0.3c-0.1-0.3-0.2-0.6-0.4-1
	c0-0.1-0.1-0.2-0.1-0.3c-0.2-0.6-0.5-1.2-0.9-1.8c-0.1-0.2-0.1-0.2-0.1-0.4c-0.1,0-0.1,0-0.2,0c-0.1-0.2-0.2-0.3-0.2-0.5
	c0-0.1-0.1-0.2-0.1-0.3c-0.1-0.2-0.1-0.2-0.1-0.4c-0.1,0-0.1,0-0.2,0c-0.2-0.2-0.2-0.2-0.4-0.5c-0.1-0.1-0.1-0.1-0.2-0.3
	c-0.1-0.3-0.1-0.3-0.1-0.5c-0.1,0-0.2-0.1-0.3-0.1c-0.1-0.2-0.3-0.3-0.4-0.5c-0.8-1-1.6-1.9-2.6-2.7c-0.1-0.1-0.3-0.2-0.4-0.4
	c0-0.1,0-0.1,0-0.2c-0.1,0-0.1,0-0.2,0c-0.3-0.1-0.4-0.2-0.7-0.4c-0.3-0.3-0.6-0.5-1-0.7c-0.3-0.1-0.5-0.3-0.7-0.5
	c-0.1-0.1-0.2-0.1-0.3-0.2c-0.2-0.1-0.3-0.2-0.5-0.3c-0.5-0.3-0.9-0.5-1.4-0.7c-0.2-0.1-0.4-0.2-0.7-0.3c-0.7-0.3-1.3-0.6-2-0.7
	c-0.3-0.1-0.5-0.1-0.8-0.2c-3.7-1-7.3-0.9-11-0.1c-0.1,0-0.1,0-0.3,0.1c-1.1,0.3-2,0.6-2.9,1.2c-0.2,0.1-0.4,0.2-0.6,0.3
	c-0.5,0.3-0.9,0.6-1.3,0.9c-0.2,0.2-0.4,0.2-0.6,0.3c0,0.1,0,0.1,0,0.2c-0.2,0.2-0.2,0.2-0.4,0.3c-0.4,0.3-0.8,0.7-1.2,1
	c-0.1,0.1-0.1,0.1-0.2,0.1c-0.2,0.2-0.4,0.4-0.6,0.6c0,0.1-0.1,0.1-0.1,0.2c-0.1,0-0.1,0-0.2,0c0,0.1-0.1,0.1-0.1,0.2
	c-0.1,0.2-0.3,0.4-0.5,0.6c-0.1,0.1-0.1,0.1-0.2,0.2c-0.2,0.2-0.2,0.2-0.4,0.2c0,0.1,0,0.1,0,0.2c-0.1,0.3-0.2,0.4-0.4,0.7
	c-0.1,0.1-0.1,0.1-0.2,0.2c-0.1,0.1-0.1,0.1-0.2,0.2c-0.2,0.3-0.4,0.6-0.5,0.9c-0.1,0.3-0.3,0.6-0.5,0.9c-0.4,0.6-0.6,1.1-0.8,1.7
	c-0.1,0.3-0.2,0.6-0.4,0.9c-0.4,1-0.7,2.1-1,3.2c0,0.1-0.1,0.2-0.1,0.3c-0.3,1.4-0.4,2.8-0.4,4.3c0,0.1,0,0.2,0,0.3
	c0,1.4,0.1,2.8,0.4,4.2c0,0.1,0,0.2,0.1,0.3c0.3,1.5,0.7,2.9,1.4,4.3c0.1,0.2,0.2,0.4,0.3,0.7c0.2,0.4,0.4,0.8,0.7,1.2
	c0.1,0.2,0.2,0.4,0.2,0.6c0.1,0,0.1,0,0.2,0c0,0.1,0.1,0.2,0.1,0.3c0.2,0.5,0.5,0.8,0.9,1.2c0.2,0.2,0.2,0.2,0.3,0.5
	c0.1,0.2,0.3,0.4,0.5,0.6c0.2,0.2,0.4,0.4,0.6,0.7c0.2,0.4,0.6,0.6,0.9,0.9c-0.2,0.2-0.2,0.2-0.4,0.3c-0.2,0.2-0.2,0.2-0.4,0.4
	c-0.2,0.2-0.4,0.2-0.7,0.3c-0.1,0.1-0.1,0.1-0.2,0.2c-0.1,0-0.2,0.1-0.3,0.1c0,0.1-0.1,0.1-0.1,0.2c-0.1,0-0.2,0.1-0.2,0.1
	c-0.3,0.1-0.3,0.1-0.4,0.3c-0.2,0.2-0.4,0.3-0.7,0.4c-0.3,0.1-0.5,0.2-0.7,0.3c-0.4,0.2-0.7,0.3-1.1,0.4c-0.1,0-0.1-0.1-0.2-0.1
	c0,0.1-0.1,0.1-0.1,0.2c-0.2,0.1-0.2,0.1-0.5,0.2c-0.1,0-0.1-0.1-0.2-0.1c0,0.1-0.1,0.1-0.1,0.2c-0.2,0-0.4,0.1-0.6,0.1
	c-0.2,0-0.2,0-0.5,0.1c-0.1,0-0.1-0.1-0.2-0.1c0,0.1,0,0.1,0,0.2c-1.6,0.3-3.1,0.5-4.7,0.5c-0.1,0-0.2,0-0.3,0c-0.2,0-0.5,0-0.7,0
	c-0.1,0-0.1,0-0.2,0c-0.4,0-0.5-0.1-0.8-0.4c-0.2-0.3-0.4-0.6-0.5-0.9c-0.2-0.3-0.4-0.7-0.6-1c-0.4-0.6-0.7-1.2-1-1.9
	c-0.1-0.3-0.3-0.5-0.4-0.8c-0.4-0.8-0.7-1.6-1-2.4c-0.1-0.2-0.1-0.3-0.2-0.5c-0.2-0.5-0.3-0.9-0.4-1.4c-0.1-0.4-0.2-0.7-0.3-1.1
	c-1.5-4.7-1.6-9.8-1-14.7c0-0.1,0-0.2,0-0.2c0.2-1.5,0.5-2.9,1-4.4c0.2-0.6,0.4-1.2,0.6-1.8c0.2-0.6,0.4-1.2,0.6-1.7
	c0.1-0.3,0.2-0.5,0.3-0.8c0.6-1.5,1.4-2.9,2.2-4.2c0.2-0.3,0.4-0.6,0.5-0.9c0.2-0.4,0.5-0.8,0.8-1.1c0.2-0.3,0.4-0.6,0.5-0.9
	c0.1,0,0.1,0,0.2,0c0-0.1,0-0.1,0.1-0.2c0.2-0.3,0.4-0.6,0.7-0.9c0-0.1,0.1-0.1,0.1-0.2c0.1-0.2,0.3-0.4,0.4-0.5
	c0.1-0.1,0.1-0.2,0.2-0.2c0.1-0.2,0.3-0.3,0.4-0.5c0.1,0,0.1,0,0.2,0c0-0.1,0.1-0.1,0.1-0.2c0.4-0.7,1-1.2,1.5-1.7
	c0.2-0.1,0.3-0.3,0.5-0.4c0.2-0.2,0.2-0.2,0.4-0.2c0-0.1,0-0.1,0-0.2c0.2-0.1,0.3-0.3,0.5-0.4c0.1-0.1,0.1-0.1,0.3-0.2
	c0.1-0.1,0.2-0.2,0.3-0.2c0.1-0.1,0.2-0.1,0.3-0.2c0.6-0.5,0.6-0.5,0.8-0.5c0.2-0.2,0.2-0.2,0.3-0.4c0.3-0.2,0.5-0.3,0.8-0.4
	c0.3-0.2,0.5-0.3,0.7-0.6c0.1,0,0.1-0.1,0.2-0.1c0.4-0.2,0.7-0.4,1-0.7c0.2-0.1,0.4-0.2,0.6-0.3c0.1-0.1,0.1-0.1,0.2-0.2
	c1.1-0.9,1.1-0.9,1.6-0.9c0-0.1,0-0.1,0-0.2c0.2-0.2,0.2-0.2,0.6-0.4c0.1,0,0.1-0.1,0.2-0.1c0.5-0.3,1-0.5,1.4-0.8
	c0.3-0.2,0.6-0.3,0.9-0.5c0.5-0.3,1-0.5,1.6-0.7c0.5-0.2,1-0.4,1.5-0.7C59,7.2,59.3,7.1,59.5,7c0.4-0.1,0.9-0.3,1.3-0.5
	c0.9-0.3,1.8-0.7,2.8-0.8c0.5-0.1,1-0.2,1.4-0.3C70.3,4.3,75.4,4.4,80.6,5.6z"/>
<path class="st1" d="M50.8,8.1c0.3,0.1,0.7,0.2,1,0.2c0,0.1,0,0.1,0,0.2c-0.1,0.1-0.2,0.1-0.3,0.2c-0.1,0.1-0.3,0.1-0.4,0.2
	C51.2,9,51.1,9,51,9c-0.3,0.2-0.6,0.3-0.9,0.5c-0.3,0.2-0.3,0.2-0.6,0.3c-0.4,0.2-0.7,0.4-1.1,0.7c-0.3,0.2-0.6,0.4-0.8,0.6
	c-0.1,0.1-0.1,0.1-0.3,0.2c-0.1,0.1-0.3,0.2-0.4,0.3c-0.2,0.1-0.4,0.3-0.6,0.5c-0.2,0.2-0.2,0.2-0.5,0.4c-0.4,0.2-0.7,0.5-1,0.8
	c-0.2,0.2-0.2,0.2-0.5,0.4c-0.4,0.3-0.7,0.6-1,0.9c-0.2,0.2-0.4,0.3-0.6,0.4c-0.2,0.2-0.2,0.2-0.3,0.4c-0.2,0.2-0.4,0.4-0.6,0.6
	c-0.3,0.2-0.5,0.5-0.7,0.8c-0.2,0.2-0.2,0.2-0.4,0.4c-0.4,0.3-0.6,0.7-0.9,1.1c-0.2,0.2-0.2,0.2-0.5,0.3c-0.1,0.2-0.1,0.2-0.2,0.4
	c-0.1,0.1-0.2,0.3-0.2,0.4c0,0.1-0.1,0.1-0.1,0.2c0,0.1-0.1,0.1-0.1,0.2c-0.1,0-0.1,0-0.2,0c0,0.1-0.1,0.1-0.1,0.2
	c0,0.1-0.1,0.2-0.1,0.2c0,0.1-0.1,0.2-0.1,0.2c-0.3,0.3-0.5,0.4-0.9,0.5c-0.1,0-0.1,0-0.2,0c-0.4,0.1-0.7,0.2-1.1,0.2
	c-0.5,0.1-1,0.3-1.5,0.5c-0.1,0-0.2,0.1-0.2,0.1c-0.4,0.2-0.9,0.4-1.3,0.6c-0.2,0.1-0.5,0.2-0.7,0.3c-0.6,0.2-1.1,0.5-1.6,0.8
	c-0.1,0-0.2,0.1-0.3,0.1c-0.5,0.3-1,0.6-1.5,1c-0.2,0.2-0.4,0.3-0.7,0.5c-0.4,0.2-0.6,0.5-0.9,0.8c-0.2,0.2-0.3,0.3-0.5,0.4
	c-0.4,0.3-0.7,0.6-1,1c-0.1,0.2-0.3,0.3-0.4,0.5c-0.2,0.2-0.4,0.5-0.6,0.7c-0.1,0.1-0.1,0.1-0.2,0.2c-0.1,0-0.1,0-0.2,0
	c0,0.1-0.1,0.1-0.1,0.2c-0.1,0.2-0.2,0.5-0.4,0.7c0,0.1-0.1,0.2-0.1,0.2c-0.1,0.2-0.1,0.2-0.3,0.4c-0.3,0.3-0.4,0.6-0.6,0.9
	c-0.1,0.1-0.1,0.1-0.1,0.2c-0.1,0-0.1,0-0.2,0c0,0.1,0,0.2,0,0.3c-0.1,0.3-0.2,0.5-0.4,0.8c-2.6,4.3-2.9,10.2-1.8,15
	c0.1,0.5,0.3,0.9,0.4,1.3c0.1,0.2,0.1,0.4,0.2,0.6c0.1,0.2,0.1,0.4,0.2,0.6c0,0.1,0,0.1,0.1,0.2c0.2,0.5,0.4,1,0.7,1.5
	c0.1,0.1,0.2,0.3,0.2,0.4c0,0.1,0.1,0.1,0.1,0.2c0.1,0.3,0.3,0.5,0.4,0.8c0,0.1,0.1,0.1,0.1,0.2c0.1,0.2,0.1,0.2,0.1,0.4
	c0.1,0,0.1,0,0.2,0c0.1,0.2,0.1,0.2,0.3,0.5c0.7,1.1,1.5,2.1,2.5,3.1c0.2,0.2,0.2,0.2,0.5,0.5c0.3,0.4,0.8,0.8,1.3,1
	c-0.5-0.5-0.5-0.5-1-1.1c-0.2-0.2-0.3-0.4-0.5-0.6c-0.2-0.3-0.4-0.5-0.6-0.7c-0.3-0.4-0.6-0.7-0.8-1.2c-0.2-0.5-0.5-0.9-0.8-1.3
	c-0.2-0.2-0.2-0.4-0.3-0.7c-0.2-0.4-0.4-0.9-0.6-1.3c-0.1-0.2-0.2-0.5-0.3-0.7c0-0.1-0.1-0.1-0.1-0.2c-0.1-0.3-0.2-0.5-0.2-0.8
	c-0.1-0.2-0.1-0.5-0.2-0.7c0-0.1,0-0.2-0.1-0.3c0-0.2-0.1-0.3-0.1-0.5c-0.1-0.3-0.2-0.6-0.2-0.9c0-0.1,0-0.1-0.1-0.2
	c-0.4-1.4-0.4-2.9-0.4-4.4c0-0.4,0-0.8,0-1.2c0-2.2,0.3-4.2,1.1-6.2c0.1,0.4,0,0.8-0.1,1.2c-0.9,4.4-0.3,9.3,1.7,13.3
	c0,0.1,0.1,0.2,0.1,0.4c0.2,0.5,0.4,0.8,0.7,1.2c0.2,0.3,0.3,0.6,0.5,0.9c0.2,0.4,0.5,0.8,0.8,1.1c0.2,0.2,0.3,0.5,0.5,0.8
	c0.1,0.1,0.2,0.2,0.3,0.3c0.2,0.2,0.3,0.3,0.5,0.5c0.7,0.8,1.4,1.5,2.3,2.2c0.1,0.1,0.1,0.1,0.2,0.2c0.4,0.4,0.8,0.6,1.3,0.9
	c0.1,0.1,0.2,0.1,0.3,0.2c0,0.1,0,0.1,0,0.2c0.1,0,0.1,0,0.2,0.1c0.3,0.1,0.5,0.2,0.7,0.4c0.1,0,0.2,0.1,0.2,0.1
	c0.2,0.1,0.5,0.3,0.7,0.4c0.1,0.1,0.1,0.1,0.2,0.1c0.2,0.1,0.3,0.2,0.5,0.3c0.4,0.2,0.8,0.4,1.2,0.5c0.2,0.1,0.3,0.1,0.5,0.2
	c0.1,0.1,0.1,0.1,0.3,0.1c0.2,0.1,0.4,0.1,0.5,0.2c0.3,0.1,0.5,0.2,0.8,0.3c0.1,0,0.1,0.1,0.2,0.1c0.7,0.2,1.3,0.3,2,0.4
	c0.2,0,0.4,0.1,0.6,0.1c2.5,0.4,4.9,0.4,7.4,0c0.1,0,0.2,0,0.3,0c1.4-0.2,2.8-0.6,4-1.3C52,61,52,61,52.2,60.9
	c0.3-0.1,0.6-0.4,0.9-0.6c0.4-0.3,0.9-0.6,1.3-0.9c0.4-0.2,0.7-0.5,1-0.8c0.1-0.1,0.2-0.2,0.3-0.2c0.4-0.2,0.6-0.5,0.9-0.9
	c0.2-0.2,0.3-0.3,0.5-0.5c0.3-0.2,0.3-0.2,0.5-0.6c0.2-0.3,0.3-0.3,0.6-0.5c0.1-0.1,0.1-0.3,0.2-0.4c0.3-0.5,0.7-1,1-1.5
	c0.4-0.5,0.6-1,0.9-1.5c0.2-0.3,0.3-0.6,0.5-0.9c0.3-0.6,0.6-1.3,0.8-1.9c0.1-0.1,0.1-0.3,0.2-0.4c1.1-2.8,1.4-6,1.2-8.9
	c0-0.1,0-0.1,0-0.3c-0.1-0.9-0.3-1.8-0.4-2.7c-0.1-0.3-0.1-0.5-0.1-0.8c-0.1-0.6-0.3-1.1-0.5-1.7c0-0.1-0.1-0.2-0.1-0.3
	c-0.1-0.4-0.3-0.7-0.5-1.1c0-0.1-0.1-0.2-0.1-0.4c-0.2-0.7-0.6-1.3-1-1.9c-0.1-0.2-0.2-0.4-0.3-0.5c-0.3-0.5-0.6-1-1-1.4
	c-0.2-0.2-0.3-0.5-0.4-0.7c-0.2-0.2-0.3-0.3-0.5-0.5c-0.5-0.5-0.5-0.5-0.5-0.8c-0.1,0-0.1-0.1-0.2-0.1c-0.2-0.1-0.4-0.3-0.6-0.5
	c-0.1-0.1-0.1-0.1-0.2-0.2c0,0-0.1-0.1-0.1-0.1c0.3-0.3,0.6-0.5,1-0.7c0.1-0.1,0.2-0.2,0.3-0.3c0.9-0.7,2-1.1,3-1.6
	c0.1,0,0.2-0.1,0.2-0.1c0.1,0,0.2-0.1,0.2-0.1c0.1,0,0.1-0.1,0.2-0.1c0.3-0.1,0.5-0.2,0.8-0.2c0.4-0.1,0.7-0.2,1.1-0.3
	c0.8-0.2,1.6-0.4,2.5-0.6c0.1,0,0.2,0,0.3-0.1c0.7-0.1,1.4-0.1,2.1-0.1c0.2,0,0.4,0,0.6,0c0.3,0,0.5,0,0.8,0c0.1,0,0.2,0,0.2,0
	c0.4,0,0.6,0,0.9,0.3c0.2,0.2,0.3,0.4,0.5,0.7c0.1,0.1,0.1,0.1,0.1,0.2c0,0.1,0.1,0.1,0.1,0.2c0.1,0.2,0.2,0.3,0.3,0.5
	c0,0.1,0.1,0.1,0.1,0.2c0.1,0.2,0.3,0.5,0.4,0.7c0.3,0.6,0.6,1.2,0.9,1.8c0.1,0.3,0.3,0.6,0.4,0.9c0.3,0.6,0.6,1.2,0.8,1.9
	c0,0.1,0,0.1,0.1,0.2c0.5,1.2,0.8,2.4,1.1,3.6c0,0.1,0,0.2,0.1,0.3c1.7,7,1.4,15.1-1.6,21.7c-0.1,0.2-0.2,0.5-0.3,0.7
	c-0.6,1.4-1.2,2.7-2.1,4c-0.1,0.2-0.3,0.4-0.4,0.7c-0.1,0.2-0.1,0.2-0.1,0.3c-0.1,0-0.1,0-0.2,0c0,0.1,0,0.1-0.1,0.2
	c-0.2,0.4-0.4,0.8-0.7,1.1c-0.1,0.1-0.1,0.1-0.2,0.2c-0.3,0.4-0.6,0.8-0.9,1.2C69,64,69,64,68.8,64.2c-0.2,0.3-0.5,0.6-0.8,0.9
	c-0.2,0.2-0.2,0.2-0.3,0.4c-0.2,0.3-0.4,0.5-0.6,0.7c-0.4,0.4-0.4,0.4-0.8,0.8c-0.3,0.3-0.5,0.6-0.8,0.8C65.2,68,65.2,68,65,68.3
	c-0.2,0.2-0.5,0.4-0.8,0.6C64,69,64,69,63.8,69.3c-0.3,0.3-0.5,0.4-0.9,0.6c-0.3,0.2-0.5,0.4-0.7,0.6c-0.5,0.4-0.5,0.4-0.8,0.4
	c0,0.1,0,0.1,0,0.2c-0.1,0-0.1,0.1-0.2,0.1c-0.5,0.3-0.9,0.5-1.4,0.9c-0.2,0.1-0.4,0.2-0.5,0.3c-0.5,0.2-0.9,0.5-1.3,0.8
	c-0.3,0.2-0.5,0.3-0.8,0.5c-0.1,0.1-0.3,0.2-0.4,0.2c-0.9,0.6-1.8,1.1-2.8,1.5c-0.1,0-0.2,0.1-0.3,0.1c-0.8,0.4-1.6,0.7-2.4,1.1
	c-0.1,0-0.1,0.1-0.2,0.1c-0.9,0.4-1.8,0.7-2.8,1c-0.2,0.1-0.5,0.1-0.7,0.2c-2.9,0.9-6.1,1.3-9.1,1.4c-0.1,0-0.2,0-0.3,0
	c-2.4,0.1-4.7-0.2-7.1-0.6c-0.3,0-0.5-0.1-0.8-0.1c-1.5-0.2-3.1-0.6-4.5-1.2c-0.3-0.1-0.6-0.2-0.9-0.3c-0.4-0.1-0.8-0.3-1.2-0.5
	c-0.2-0.1-0.4-0.2-0.6-0.2c-0.1,0-0.2-0.1-0.3-0.1c-0.3-0.1-0.6-0.2-0.9-0.4c-0.6-0.3-1.2-0.6-1.8-0.9c-0.3-0.2-0.6-0.3-0.9-0.5
	c-0.5-0.2-0.9-0.5-1.3-0.8c-0.2-0.1-0.4-0.3-0.6-0.4c-1-0.6-1-0.6-1.4-0.9c-0.3-0.3-0.6-0.4-0.9-0.6c-0.1,0-0.1-0.1-0.2-0.1
	c0-0.1,0-0.1,0-0.2c-0.1,0-0.1,0-0.2-0.1c-0.2-0.1-0.4-0.3-0.7-0.4c-0.1,0-0.1-0.1-0.2-0.1c-0.3-0.2-0.5-0.4-0.7-0.7
	c-0.2-0.2-0.5-0.5-0.7-0.7c-0.1-0.1-0.1-0.1-0.2-0.2c-0.3-0.3-0.5-0.5-0.8-0.7c-0.2-0.2-0.4-0.3-0.5-0.5c-0.3-0.3-0.6-0.7-0.9-1
	c-2.3-2.5-2.3-2.5-2.3-3.1c-0.1,0-0.1,0-0.2,0c0-0.1,0-0.3,0-0.4c-0.1,0-0.1,0-0.2,0c-0.2-0.2-0.3-0.4-0.5-0.6
	C6.8,63,6.8,63,6.7,62.9c-0.3-0.4-0.5-0.7-0.7-1.1c-0.2-0.3-0.3-0.6-0.5-0.9c-0.5-0.7-0.8-1.4-1.2-2.2C4.3,58.5,4.1,58.3,4,58
	c-0.2-0.5-0.4-0.9-0.6-1.4c-0.1-0.4-0.3-0.8-0.4-1.2c0-0.1,0-0.1-0.1-0.2c-0.1-0.2-0.2-0.5-0.3-0.7c-0.1-0.2-0.2-0.4-0.2-0.7
	c-0.2-0.7-0.4-1.5-0.6-2.2c0-0.1-0.1-0.2-0.1-0.3c0-0.1-0.1-0.2-0.1-0.3c-0.2-0.7-0.3-1.4-0.4-2.2c0-0.1,0-0.2,0-0.3
	c0-0.2-0.1-0.4-0.1-0.6c0-0.3-0.1-0.6-0.1-0.9c-0.1-0.9-0.3-1.8-0.2-2.8c-0.1,0-0.1,0-0.2,0c0-1.4,0-2.8,0-4.2c0.1,0,0.1,0,0.2,0
	c0-0.1,0-0.1,0-0.2c0-0.9,0.1-1.8,0.2-2.7c0-0.1,0-0.2,0-0.2c0.2-1.6,0.5-3.2,1-4.7c0,0,0.1,0,0.1,0c-0.1,0.8-0.2,1.6-0.3,2.3
	c-0.2,1-0.2,2-0.2,3c0,0.1,0,0.2,0,0.4c0,0.3,0,0.5,0,0.8c0,0.4,0,0.8,0,1.1c0,2,0.2,4,0.6,5.9c0,0.1,0,0.2,0.1,0.3
	c0.1,0.6,0.3,1.2,0.4,1.8c0.1,0.3,0.1,0.6,0.2,0.8c0.1,0.6,0.3,1.2,0.5,1.8c0.1,0.2,0.2,0.4,0.2,0.7c0,0.1,0.1,0.2,0.1,0.3
	c0.1,0.4,0.2,0.7,0.4,1.1c0.2,0.7,0.6,1.4,0.9,2C5,55,5.1,55.3,5.2,55.5c0.1,0.3,0.2,0.5,0.4,0.8c0,0.1,0.1,0.2,0.1,0.2
	C5.8,56.7,5.9,56.9,6,57c0.2,0.4,0.3,0.8,0.4,1.1c0.1,0,0.1,0,0.2,0c0.2,0.2,0.3,0.4,0.4,0.7c0.1,0.1,0.2,0.2,0.2,0.4
	c0,0.1,0.1,0.1,0.1,0.2c0.1,0.2,0.2,0.3,0.3,0.5C8,60.2,8,60.2,8,60.4c0.1,0,0.1,0,0.2,0c0.1,0.2,0.2,0.3,0.3,0.5
	c0.1,0.2,0.3,0.3,0.4,0.5c0.1,0.1,0.2,0.3,0.3,0.4c0.3,0.4,0.6,0.8,1,1.2c0.1,0.1,0.1,0.1,0.2,0.2c0.3,0.4,0.7,0.7,1,1.1
	c0.1,0.1,0.1,0.1,0.2,0.2c0.2,0.2,0.4,0.4,0.6,0.6c0.2,0.2,0.4,0.4,0.6,0.6c0.2,0.3,0.5,0.4,0.8,0.6c0.2,0.2,0.2,0.2,0.3,0.3
	c0,0.1,0,0.1,0,0.2c0.1,0,0.1,0,0.2,0.1c0.6,0.3,1.1,0.7,1.6,1.2c0.2,0.1,0.5,0.3,0.7,0.4c0,0.1,0,0.1,0,0.2c0.1,0,0.1,0,0.2,0.1
	c0.3,0.1,0.5,0.3,0.8,0.5c0.4,0.3,0.8,0.6,1.2,0.8c0.2,0.1,0.5,0.3,0.7,0.4c2.3,1.5,2.3,1.5,4.8,2.2c-0.8-0.4-0.8-0.4-1.6-0.9
	c0-0.1,0-0.1,0-0.2c-0.1,0-0.1,0-0.2-0.1c-0.3-0.1-0.7-0.3-1-0.5c0-0.1,0-0.1,0-0.2c-0.1,0-0.1,0-0.2-0.1c-0.3-0.2-0.6-0.4-0.9-0.6
	C20.1,70,20.1,70,20,69.9c-0.2-0.1-0.3-0.3-0.5-0.4c-0.1-0.1-0.2-0.1-0.2-0.2c-0.2-0.1-0.3-0.3-0.5-0.4c0-0.1,0-0.1,0-0.2
	c-0.1,0-0.1,0-0.2-0.1c-0.6-0.3-1.1-0.8-1.6-1.3c-0.1-0.1-0.3-0.3-0.4-0.4c-0.1-0.1-0.1-0.1-0.2-0.2c-0.1-0.1-0.3-0.3-0.4-0.4
	c-0.3-0.3-0.6-0.7-0.9-1c-0.1-0.1-0.1-0.1-0.2-0.2c-0.1-0.1-0.1-0.1-0.2-0.2c0-0.1-0.1-0.1-0.1-0.2c-0.1-0.1-0.1-0.1-0.1-0.3
	c-0.1,0-0.1,0-0.2,0c0-0.1,0-0.2,0-0.3c-0.1,0-0.1,0-0.2-0.1c-0.3-0.2-0.3-0.3-0.5-0.6c-0.2-0.4-0.4-0.7-0.7-1
	c-0.3-0.3-0.4-0.6-0.6-1c-0.1-0.2-0.2-0.3-0.3-0.5c-1.1-1.5-1.1-1.5-1.1-2c-0.1,0-0.1,0-0.2,0c-0.3-0.6-0.6-1.2-0.9-1.9
	c-0.2-0.3-0.3-0.6-0.5-0.9c-0.1-0.3-0.1-0.3-0.1-0.6c-0.1,0-0.1,0-0.2,0c0-0.1-0.1-0.2-0.1-0.3c-0.2-0.7-0.4-1.4-0.7-2
	c-0.1-0.3-0.2-0.7-0.3-1C7.8,52,7.8,52,7.7,51.7c-0.1-0.3-0.1-0.5-0.2-0.8c-0.1-0.5-0.2-1-0.3-1.5c-0.1-0.6-0.3-1.1-0.3-1.7
	c0-0.2-0.1-0.5-0.1-0.7c-0.1-0.5-0.2-0.9-0.2-1.4c0-0.1,0-0.2,0-0.3c-0.2-2.4-0.3-4.9,0.1-7.4c0-0.3,0.1-0.6,0.1-0.8
	c0-0.4,0.1-0.7,0.2-1.1c0.1-0.4,0.2-0.9,0.3-1.3c0.1-0.3,0.1-0.6,0.2-1c0-0.1,0.1-0.2,0.1-0.3c0.3-1.3,0.7-2.6,1.2-3.9
	c0.1-0.2,0.2-0.5,0.2-0.7c0.2-0.5,0.4-1,0.7-1.5c0.3-0.5,0.6-1.1,0.8-1.6c0.1-0.2,0.2-0.3,0.3-0.5c0.2-0.4,0.5-0.9,0.7-1.3
	c0.1-0.1,0.1-0.2,0.2-0.3c0.1-0.1,0.1-0.1,0.1-0.2c0.1,0,0.1,0,0.2,0c0-0.1,0-0.1,0.1-0.2c0.2-0.4,0.4-0.7,0.6-1
	c0-0.1,0.1-0.1,0.1-0.2c0.3-0.4,0.6-0.8,0.9-1.2c0.1-0.2,0.2-0.3,0.3-0.5c0.2-0.4,0.5-0.7,0.8-1c0.2-0.2,0.4-0.5,0.6-0.8
	c0.1-0.1,0.2-0.1,0.2-0.2c0.3-0.2,0.4-0.4,0.6-0.7c0.4-0.5,0.8-0.8,1.2-1.2c0.4-0.4,0.9-0.8,1.3-1.2c0.3-0.3,0.6-0.5,0.9-0.7
	c0.2-0.2,0.4-0.3,0.6-0.5c0.3-0.3,0.6-0.5,1-0.7c0.3-0.2,0.5-0.3,0.7-0.5c1.4-1,1.4-1,1.9-1c0-0.1,0-0.1,0-0.2
	c0.1,0,0.2-0.1,0.3-0.1c0.1-0.1,0.3-0.1,0.4-0.2c0.1,0,0.1-0.1,0.2-0.1c0.4-0.2,0.7-0.4,1.1-0.6c0.8-0.5,1.7-0.8,2.6-1.1
	c0.3-0.1,0.7-0.2,1-0.4c1.1-0.5,2.2-0.8,3.3-1c0.1,0,0.1,0,0.2-0.1c0.5-0.1,1-0.2,1.4-0.3c0.1,0,0.1,0,0.3-0.1
	C39.8,6.3,45.8,6.7,50.8,8.1z M27.6,58.6c0,0.1,0.1,0.2,0.1,0.3c0.1,0,0.1-0.1,0.2-0.1c0-0.1-0.1-0.1-0.1-0.2
	C27.7,58.6,27.7,58.6,27.6,58.6z"/>
<path class="st2" d="M68.3,22.3c0.2,0,0.4,0,0.6,0c0.3,0,0.5,0,0.8,0c0.1,0,0.2,0,0.2,0c0.4,0,0.6,0,0.9,0.3
	c0.2,0.2,0.3,0.4,0.5,0.7c0.1,0.1,0.1,0.1,0.1,0.2c0.1,0.1,0.1,0.1,0.1,0.2c0.1,0.2,0.2,0.3,0.3,0.5c0.1,0.1,0.1,0.1,0.1,0.2
	c0.1,0.2,0.3,0.5,0.4,0.7c0.3,0.6,0.6,1.2,0.9,1.8c0.1,0.3,0.3,0.6,0.4,0.9c0.3,0.6,0.6,1.2,0.8,1.9c0,0.1,0,0.1,0.1,0.2
	c0.5,1.2,0.8,2.4,1.1,3.6c0,0.1,0,0.2,0.1,0.3c1.7,7,1.4,15.1-1.6,21.7c-0.1,0.2-0.2,0.5-0.3,0.7c-0.6,1.4-1.2,2.7-2.1,4
	c-0.1,0.2-0.3,0.4-0.4,0.7c0,0.1-0.1,0.2-0.1,0.3c-0.1,0-0.1,0-0.2,0c0,0.1,0,0.1-0.1,0.2c-0.2,0.4-0.4,0.8-0.7,1.1
	c-0.1,0.1-0.1,0.1-0.2,0.2c-0.3,0.4-0.6,0.8-0.9,1.2C69,64,69,64,68.8,64.2c-0.2,0.3-0.5,0.6-0.8,0.9c-0.2,0.2-0.2,0.2-0.3,0.4
	c-0.2,0.3-0.4,0.5-0.6,0.7c-0.4,0.4-0.4,0.4-0.8,0.8c-0.3,0.3-0.5,0.6-0.8,0.8C65.2,68,65.2,68,65,68.3c-0.2,0.2-0.5,0.4-0.8,0.6
	C64,69,64,69,63.8,69.3c-0.4,0.4-0.8,0.6-1.4,0.8c-0.4,0.1-0.7,0.2-1,0.4c-1.3,0.5-2.5,0.8-3.9,1.1c-1,0.2-1,0.2-2,0.5
	c-0.6,0.2-1.2,0.3-1.9,0.4c-0.2,0-0.4,0.1-0.7,0.1c-1.2,0.2-1.2,0.2-1.8,0.2c0-0.1,0.1-0.2,0.1-0.3c0.1,0,0.2,0,0.3,0
	c0-0.1,0-0.1,0-0.2c-0.1,0-0.2,0-0.4,0c-2.6,0.1-5-0.4-7.5-1c-0.3-0.1-0.5-0.1-0.8-0.2c-0.6-0.1-1.1-0.4-1.7-0.6
	c-0.2-0.1-0.4-0.2-0.6-0.3c-0.1,0-0.2-0.1-0.3-0.1c-0.3-0.1-0.6-0.2-0.9-0.3c-0.5-0.2-0.9-0.4-1.3-0.6c-0.4-0.2-0.8-0.5-1.3-0.7
	c-0.5-0.3-1-0.6-1.5-0.9c-0.1-0.1-0.2-0.1-0.3-0.2c-0.5-0.4-1-0.7-1.5-1.1c-0.2-0.2-0.2-0.2-0.5-0.4c-0.4-0.2-0.7-0.5-1-0.8
	c-0.2-0.2-0.4-0.3-0.5-0.5c-0.3-0.2-0.5-0.5-0.8-0.7c-0.1-0.1-0.2-0.1-0.2-0.2c-0.2-0.2-0.4-0.4-0.5-0.6c-0.2-0.3-0.4-0.5-0.7-0.8
	c-0.3-0.3-0.5-0.6-0.7-0.9c-0.2-0.2-0.4-0.5-0.6-0.7c-0.3-0.3-0.4-0.6-0.6-1c-0.1-0.1-0.1-0.1-0.2-0.2c-0.3-0.3-0.4-0.5-0.6-0.9
	c-0.1-0.1-0.1-0.2-0.2-0.3c-0.1-0.1-0.1-0.2-0.2-0.3c-0.1-0.1-0.1-0.2-0.2-0.3c-0.1-0.2-0.1-0.2-0.1-0.5c0-0.1,0-0.1,0.1-0.2
	c0,0,0.1,0.1,0.1,0.1c0.4,0.5,0.9,1,1.5,1.3c-0.5-0.5-0.5-0.5-1-1.1c-0.2-0.2-0.3-0.4-0.5-0.6c-0.2-0.3-0.4-0.5-0.6-0.7
	c-0.3-0.4-0.6-0.7-0.8-1.2c-0.2-0.5-0.5-0.9-0.8-1.3c-0.2-0.2-0.2-0.4-0.3-0.7c-0.2-0.4-0.4-0.9-0.6-1.3c-0.1-0.2-0.2-0.5-0.3-0.7
	c0-0.1-0.1-0.1-0.1-0.2c-0.1-0.3-0.2-0.5-0.2-0.8c-0.1-0.2-0.1-0.5-0.2-0.7c0-0.1,0-0.2-0.1-0.3c0-0.2-0.1-0.3-0.1-0.5
	c-0.1-0.3-0.2-0.6-0.2-0.9c0-0.1,0-0.1-0.1-0.2c-0.4-1.4-0.4-2.9-0.4-4.4c0-0.4,0-0.8,0-1.2c0-2.2,0.3-4.2,1.1-6.2
	c0.1,0.4,0,0.8-0.1,1.2c-0.9,4.4-0.3,9.3,1.7,13.3c0,0.1,0.1,0.2,0.1,0.4c0.2,0.5,0.4,0.8,0.7,1.2c0.2,0.3,0.3,0.6,0.5,0.9
	c0.2,0.4,0.5,0.8,0.8,1.1c0.2,0.2,0.3,0.5,0.5,0.8c0.1,0.1,0.2,0.2,0.3,0.3c0.2,0.2,0.3,0.3,0.5,0.5c0.7,0.8,1.4,1.5,2.3,2.2
	c0.1,0.1,0.1,0.1,0.2,0.2c0.4,0.4,0.8,0.6,1.3,0.9c0.1,0.1,0.2,0.1,0.3,0.2c0,0.1,0,0.1,0,0.2c0.1,0,0.1,0,0.2,0.1
	c0.3,0.1,0.5,0.2,0.7,0.4c0.1,0,0.2,0.1,0.2,0.1c0.2,0.1,0.5,0.3,0.7,0.4c0.1,0,0.2,0.1,0.2,0.1c0.2,0.1,0.3,0.2,0.5,0.3
	c0.4,0.2,0.8,0.4,1.2,0.5c0.2,0.1,0.3,0.1,0.5,0.2c0.1,0.1,0.1,0.1,0.3,0.1c0.2,0.1,0.4,0.1,0.5,0.2c0.3,0.1,0.5,0.2,0.8,0.3
	c0.1,0,0.1,0.1,0.2,0.1c0.7,0.2,1.3,0.3,2,0.4c0.2,0,0.4,0.1,0.6,0.1c2.5,0.4,4.9,0.4,7.4,0c0.1,0,0.2,0,0.3,0
	c1.4-0.2,2.8-0.6,4-1.3C52,61,52,61,52.2,60.9c0.3-0.1,0.6-0.4,0.9-0.6c0.4-0.3,0.9-0.6,1.3-0.9c0.4-0.2,0.7-0.5,1-0.8
	c0.1-0.1,0.2-0.2,0.3-0.2c0.4-0.2,0.6-0.5,0.9-0.9c0.2-0.2,0.3-0.3,0.5-0.5c0.3-0.2,0.3-0.2,0.5-0.6c0.2-0.3,0.3-0.3,0.6-0.5
	c0.1-0.1,0.1-0.3,0.2-0.4c0.3-0.5,0.7-1,1-1.5c0.4-0.5,0.6-1,0.9-1.5c0.2-0.3,0.3-0.6,0.5-0.9c0.3-0.6,0.6-1.3,0.8-1.9
	c0.1-0.1,0.1-0.3,0.2-0.4c1.1-2.8,1.4-6,1.2-8.9c0-0.1,0-0.2,0-0.3c-0.1-0.9-0.3-1.8-0.4-2.7c-0.1-0.3-0.1-0.5-0.1-0.8
	c-0.1-0.6-0.3-1.1-0.5-1.7c0-0.1-0.1-0.2-0.1-0.3c-0.1-0.4-0.3-0.7-0.5-1.1c0-0.1-0.1-0.2-0.1-0.4c-0.2-0.7-0.6-1.3-1-1.9
	c-0.1-0.2-0.2-0.4-0.3-0.5c-0.3-0.5-0.6-1-1-1.4c-0.2-0.2-0.3-0.5-0.4-0.7c-0.2-0.2-0.3-0.3-0.5-0.5c-0.5-0.5-0.5-0.5-0.5-0.8
	c-0.1,0-0.1-0.1-0.2-0.1c-0.2-0.1-0.4-0.3-0.6-0.5c-0.1-0.1-0.1-0.1-0.2-0.2c0,0-0.1-0.1-0.1-0.1c0.3-0.3,0.6-0.5,1-0.7
	c0.1-0.1,0.2-0.2,0.3-0.3c0.9-0.7,2-1.1,3-1.6c0.1-0.1,0.1-0.1,0.2-0.1c0.1,0,0.2-0.1,0.2-0.1c0.1,0,0.1-0.1,0.2-0.1
	c0.3-0.1,0.5-0.2,0.8-0.2c0.4-0.1,0.7-0.2,1.1-0.3c0.8-0.2,1.6-0.4,2.5-0.6c0.1,0,0.2,0,0.3-0.1C66.8,22.3,67.6,22.3,68.3,22.3z
	 M27.6,58.6c0,0.1,0.1,0.2,0.1,0.3c0.1,0,0.1-0.1,0.2-0.1c0-0.1-0.1-0.1-0.1-0.2C27.7,58.6,27.7,58.6,27.6,58.6z"/>
<path class="st3" d="M80.6,5.6c0.2,0,0.4,0.1,0.7,0.1c0.8,0.2,1.6,0.4,2.4,0.7c0.1,0,0.2,0.1,0.3,0.1c0.2,0.1,0.4,0.2,0.7,0.2
	C85,6.9,85.3,6.9,85.5,7c0.5,0.2,1,0.4,1.4,0.6c0.5,0.2,1,0.5,1.5,0.7c0.4,0.1,0.7,0.3,1.1,0.5c0.4,0.2,0.8,0.5,1.3,0.7
	c0.5,0.3,1.1,0.6,1.6,1c0.3,0.2,0.6,0.4,1,0.6c0.4,0.3,0.7,0.5,1.1,0.9c0.1,0.1,0.2,0.2,0.4,0.2c0.4,0.3,0.8,0.6,1.2,0.9
	c0.3,0.2,0.5,0.5,0.8,0.7c0.4,0.3,0.8,0.7,1.1,1.1c0.2,0.2,0.4,0.4,0.6,0.5c0.5,0.4,0.9,0.9,1.3,1.4c0.2,0.2,0.3,0.3,0.5,0.5
	c0.1,0.1,0.1,0.2,0.2,0.2c0.1,0.1,0.3,0.3,0.4,0.4c0.4,0.4,0.7,0.8,1,1.3c0.2,0.3,0.4,0.6,0.7,0.8c0.2,0.2,0.3,0.5,0.5,0.8
	c0.1,0.2,0.2,0.3,0.4,0.5c0.3,0.5,0.6,0.9,0.9,1.4c0,0.1,0.1,0.1,0.1,0.2c0.2,0.5,0.2,0.5,0.2,0.7c0.1,0,0.1,0.1,0.2,0.1
	c0.1,0.2,0.1,0.2,0.2,0.4c0,0.1,0.1,0.2,0.1,0.2c0,0.1,0.1,0.2,0.1,0.3c0.1,0.2,0.2,0.3,0.2,0.5c0.1,0.1,0.1,0.1,0.1,0.3
	c0.2,0.4,0.4,0.7,0.5,1.1c0.3,0.6,0.5,1.1,0.7,1.7c0.1,0.2,0.2,0.4,0.3,0.7c0.4,1,0.7,2,1,3c0.1,0.3,0.1,0.5,0.2,0.8
	c0.4,1.5,0.7,2.9,0.9,4.4c0,0.1,0,0.2,0,0.3c0.1,0.8,0.1,1.5,0.1,2.3c0.1,0,0.1,0,0.2,0c0,1.3,0,2.6,0,3.9c-0.1,0-0.1,0-0.2,0
	c0,0.1,0,0.1,0,0.2c0,0.9-0.1,1.8-0.2,2.7c0,0.1,0,0.1,0,0.2c-0.4,3.7-0.4,3.7-1,4.3c0.1-0.7,0.1-1.3,0.2-2
	c0.5-3.8,0.3-7.6-0.4-11.4c0-0.1-0.1-0.3-0.1-0.4c-0.2-1.3-0.6-2.5-1-3.7c-0.1-0.3-0.2-0.6-0.3-0.9c-0.1-0.2-0.1-0.4-0.2-0.6
	c0-0.1-0.1-0.2-0.1-0.3c-0.2-0.5-0.4-1-0.6-1.5c-0.1-0.2-0.2-0.4-0.3-0.7c0-0.1-0.1-0.2-0.1-0.3c-0.1-0.2-0.2-0.4-0.3-0.7
	c-0.2-0.4-0.4-0.8-0.6-1.1c-0.2-0.4-0.5-0.8-0.7-1.2c-0.1-0.3-0.3-0.6-0.5-0.8c-0.3-0.5-0.6-0.9-0.9-1.4c-0.2-0.4-0.5-0.7-0.8-1.1
	c-0.4-0.6-0.4-0.6-0.4-0.8c-0.1,0-0.1,0-0.2-0.1c-0.4-0.2-0.6-0.6-0.8-0.9c-0.1-0.3-0.4-0.4-0.6-0.6c0-0.1,0-0.1,0-0.2
	c-0.1,0-0.1,0-0.2,0c0-0.1,0-0.1,0-0.2c-0.1,0-0.2-0.1-0.3-0.1c-0.2-0.2-0.3-0.3-0.5-0.5c-0.1-0.1-0.3-0.3-0.4-0.4
	c-0.2-0.2-0.4-0.4-0.6-0.7c-0.3-0.3-0.6-0.5-0.9-0.8c-0.2-0.2-0.2-0.2-0.4-0.4c-0.2-0.2-0.5-0.4-0.8-0.6c-0.3-0.2-0.5-0.4-0.7-0.6
	c-0.2-0.1-0.2-0.1-0.4-0.3c-0.3-0.2-0.6-0.4-0.9-0.6c-0.5-0.4-1-0.7-1.5-1c-0.3-0.2-0.6-0.4-0.9-0.6c-0.3-0.2-0.5-0.3-0.8-0.4
	c-0.3-0.2-0.7-0.4-1-0.6c-0.5-0.3-1-0.5-1.6-0.7c-0.4-0.2-0.9-0.4-1.3-0.6c-0.2-0.1-0.2-0.1-0.5-0.1c0.4,0.5,1,0.7,1.5,1
	c0.2,0.1,0.2,0.1,0.5,0.3c0,0.1,0,0.1,0,0.2c0.1,0,0.1,0,0.2,0.1c0.3,0.1,0.7,0.3,1,0.5c0,0.1,0,0.1,0,0.2c0.1,0,0.1,0.1,0.2,0.1
	c0.2,0.1,0.4,0.2,0.6,0.4c0.1,0.1,0.1,0.1,0.2,0.2c0.1,0.1,0.1,0.1,0.2,0.2c0.1,0.1,0.1,0.1,0.2,0.2c0.6,0.4,1.1,0.8,1.6,1.3
	c0.1,0.1,0.3,0.2,0.4,0.3c0.3,0.3,0.6,0.6,0.9,0.8c0.1,0.1,0.1,0.1,0.2,0.2c0.4,0.4,0.7,0.7,1.1,1.1c0.2,0.2,0.3,0.4,0.5,0.5
	c0.3,0.3,0.3,0.3,0.4,0.6c0.1,0.1,0.2,0.2,0.3,0.3c1.7,1.7,1.7,1.7,1.7,2.4c0.1,0,0.1,0,0.2,0c0.1,0.1,0.1,0.1,0.1,0.2
	c0.3,0.6,0.3,0.6,0.7,1.1c0.3,0.3,0.4,0.7,0.6,1c0.1,0.2,0.3,0.5,0.4,0.7c0.6,1.1,1.2,2.2,1.7,3.4c0.1,0.1,0.1,0.2,0.2,0.3
	c0.2,0.5,0.4,1,0.5,1.4c0.1,0.4,0.3,0.9,0.4,1.3c0.1,0.2,0.1,0.4,0.2,0.7c0,0.1,0.1,0.2,0.1,0.3c0.2,0.7,0.4,1.4,0.5,2.2
	c0,0.2,0.1,0.5,0.1,0.7c0,0.1,0,0.2,0.1,0.4c0,0.2,0.1,0.5,0.1,0.7c0.3,1.8,0.5,3.6,0.5,5.4c0,0.1,0,0.3,0,0.4c0,0.7,0,1.5-0.1,2.2
	c0,0.4,0,0.7-0.1,1.1c0,0.2-0.1,0.5-0.1,0.7c0,0.1,0,0.3,0,0.4c0,0.3-0.1,0.6-0.1,0.8c0,0.1,0,0.2,0,0.3c-0.1,0.4-0.1,0.4-0.2,0.7
	c-0.1,0.4-0.2,0.7-0.2,1.1c0,0.1,0,0.3-0.1,0.4c0,0.1,0,0.2,0,0.3c-0.1,0-0.1,0-0.2,0c0,0.1,0,0.1,0.1,0.2c0.1,0.3,0,0.5-0.2,0.8
	c-0.1,0-0.1,0-0.2,0c0,0.1,0,0.1,0.1,0.2c0,0.3,0,0.4-0.2,0.7c-0.1,0.2-0.2,0.4-0.2,0.7c0,0.1-0.1,0.2-0.1,0.3
	c-0.1,0.3-0.2,0.6-0.3,0.9c-0.2,0.6-0.4,1.1-0.6,1.6c0,0.1-0.1,0.2-0.1,0.3c-0.3,0.7-0.7,1.5-1.1,2.2c0,0.1-0.1,0.1-0.1,0.2
	c-0.4,0.7-0.8,1.4-1.2,2.1c-0.1,0.2-0.2,0.4-0.4,0.6c-0.1,0.3-0.3,0.5-0.5,0.7c-0.2,0.3-0.4,0.5-0.6,0.8c-0.6,0.9-1.3,1.7-2,2.5
	c-0.1,0.1-0.2,0.2-0.3,0.3c-0.2,0.3-0.4,0.4-0.7,0.6c-0.4-0.1-0.4-0.1-0.7-0.2c0-0.1,0-0.1,0-0.2c-0.1,0-0.2,0-0.2,0
	c-0.3-0.1-0.3-0.1-0.5-0.2c0-0.1,0-0.1,0-0.2c-0.1,0-0.1,0-0.2,0c-0.3-0.1-0.4-0.3-0.6-0.6c0-0.1-0.1-0.2-0.1-0.3
	c0.1-0.2,0.1-0.2,0.3-0.5c0.1-0.1,0.1-0.2,0.2-0.3c0.1-0.2,0.2-0.4,0.3-0.6c0.2-0.3,0.3-0.6,0.4-0.8c0.1-0.2,0.2-0.3,0.2-0.4
	c0.4-0.7,0.7-1.4,1-2.2c0.1-0.2,0.2-0.4,0.3-0.6c0.6-1.2,1-2.5,1.3-3.8c0.1-0.3,0.2-0.6,0.2-0.9c0.1-0.2,0.1-0.4,0.2-0.6
	c0-0.1,0-0.2,0.1-0.3c0.2-0.8,0.3-1.5,0.4-2.3c0-0.3,0.1-0.5,0.1-0.8c0.4-3.1,0.5-6.3,0-9.4c0-0.3-0.1-0.6-0.1-1
	c-0.2-1.8-0.7-3.5-1.3-5.3c-0.1-0.3-0.2-0.5-0.3-0.8c-0.2-0.5-0.4-1-0.6-1.5c-0.2-0.5-0.5-1-0.7-1.5c-0.2-0.4-0.4-0.8-0.6-1.2
	c-0.2-0.4-0.4-0.7-0.5-1.1c-0.1-0.4-0.4-0.8-0.7-1.1c-0.1-0.2-0.3-0.4-0.4-0.6c-0.2-0.3-0.4-0.6-0.6-0.9c-0.2-0.3-0.4-0.5-0.6-0.8
	c-0.3-0.5-0.6-0.9-1-1.3c-0.2-0.2-0.4-0.5-0.6-0.7c-1.1-1.4-2.4-2.7-3.9-3.8c-0.3-0.2-0.5-0.4-0.7-0.7c-0.3-0.3-0.7-0.5-1-0.8
	c-0.3-0.2-0.5-0.4-0.8-0.6c-0.2-0.2-0.5-0.3-0.7-0.5c-0.2-0.1-0.5-0.3-0.7-0.5c-0.4-0.3-0.8-0.5-1.2-0.7c-0.3-0.2-0.7-0.4-1-0.6
	c-0.7-0.4-1.4-0.8-2.2-1.1c-0.3-0.1-0.5-0.2-0.8-0.4c-0.4-0.2-0.8-0.3-1.3-0.4c-0.3-0.1-0.5-0.2-0.8-0.3c-1-0.4-2-0.8-3.1-0.9
	c-0.5-0.1-1-0.2-1.5-0.4c-4.4-1.1-9.4-0.8-13.8,0.1C55,12,55,12,54.9,12c-1.9,0.4-3.8,0.9-5.7,1.6c-0.3,0.1-0.5,0.1-0.8,0.2
	c-0.3,0.1-0.6,0.2-0.9,0.3c0-0.1,0-0.2,0-0.3c0.3-0.2,0.5-0.3,0.8-0.4c0.3-0.2,0.5-0.3,0.7-0.6c0.1,0,0.1-0.1,0.2-0.1
	c0.4-0.2,0.7-0.4,1-0.7c0.2-0.1,0.4-0.2,0.6-0.3c0.1-0.1,0.1-0.1,0.2-0.2c1.1-0.9,1.1-0.9,1.6-0.9c0-0.1,0-0.1,0-0.2
	c0.2-0.2,0.2-0.2,0.6-0.4c0.1,0,0.1-0.1,0.2-0.1c0.5-0.3,1-0.5,1.4-0.8c0.3-0.2,0.6-0.3,0.9-0.5c0.5-0.3,1-0.5,1.6-0.7
	c0.5-0.2,1-0.4,1.5-0.7C59,7.2,59.3,7.1,59.5,7c0.4-0.1,0.9-0.3,1.3-0.5c0.9-0.3,1.8-0.7,2.8-0.8c0.5-0.1,1-0.2,1.4-0.3
	C70.3,4.3,75.4,4.4,80.6,5.6z"/>
<path class="st4" d="M79,19.9c0.4,0.1,0.7,0.2,1,0.6c0,0.1,0.1,0.1,0.1,0.2c0.2,0.1,0.5,0.1,0.7,0.2c0.1,0,0.1,0,0.2,0.1
	c0,0.1,0,0.1,0,0.2c0,0.2,0,0.2,0.3,0.4c0.2,0.1,0.2,0.1,0.3,0.2c0.1,0.1,0.2,0.1,0.3,0.2c0.1,0,0.2,0.1,0.3,0.1c0,0.1,0,0.1,0,0.2
	c0.1,0,0.1,0,0.2,0c0.3,0.1,0.5,0.2,0.8,0.5c0.1,0.1,0.3,0.2,0.4,0.3c0.2,0.1,0.2,0.1,0.3,0.2c0,0.1,0,0.1,0,0.2c0.1,0,0.1,0,0.2,0
	c0.3,0.1,0.4,0.1,0.7,0.3c0,0.1,0,0.1,0,0.2c0.1,0,0.1,0,0.2,0c0,0.1,0,0.1,0,0.2c0.1,0,0.1,0,0.2,0c0.3,0.1,0.4,0.2,0.7,0.4
	c0.5,0.4,1,0.7,1.5,1c0.1,0.1,0.1,0.1,0.2,0.2c0,0.1,0,0.1,0,0.2c0.1,0,0.1,0,0.2,0c0.2,0.1,0.4,0.2,0.6,0.3c0.1,0,0.1,0.1,0.2,0.1
	c0.2,0.1,0.2,0.1,0.3,0.3c0.1,0,0.2,0.1,0.2,0.1c0.3,0.2,0.3,0.2,0.5,0.5c0.2,0.1,0.2,0.1,0.4,0.2c0,0.1,0,0.1,0,0.2
	c0.1,0,0.1,0,0.2,0.1c0.3,0.2,0.6,0.3,0.9,0.5c0,0.1,0,0.2,0,0.3c0.1,0,0.1,0,0.2,0c0.5,0.1,0.8,0.4,1.2,0.7c0.1,0,0.1,0.1,0.2,0.1
	c0.8,0.6,1.2,1.7,1.5,2.6c0.1,0.2,0.2,0.5,0.3,0.7c0.4,1,0.8,2,1.1,3.1c0.1,0.4,0.2,0.7,0.3,1c0.4,1.3,0.6,2.5,0.8,3.8
	c0,0.3,0.1,0.6,0.1,0.9c0.5,3.2,0.3,6.4-0.1,9.5c0,0.3-0.1,0.6-0.1,0.9c-0.2,1.4-0.6,2.8-1,4.1c-0.1,0.3-0.2,0.6-0.2,0.8
	c-0.3,1-0.6,2.2-1.2,3.1c0,0.1-0.1,0.3-0.1,0.4c-0.2,0.7-0.5,1.3-0.9,1.8c-0.1,0.2-0.3,0.5-0.4,0.7c-0.1,0.3-0.2,0.4-0.4,0.7
	C92,63.9,92,64,91.9,64.3c-0.1,0.1-0.1,0.1-0.2,0.2c0,0.3,0,0.3,0,0.6c0.1,0,0.2,0.1,0.3,0.1c0,0.1,0,0.1,0,0.2
	c0.1,0,0.3,0.1,0.4,0.1c0,0.1,0,0.1,0,0.2c0.2,0.1,0.5,0.1,0.7,0.2c0,0.1,0,0.1,0,0.2c0.2,0.1,0.5,0.1,0.7,0.2
	c0-0.1,0.1-0.1,0.1-0.2c-0.1,0.4-0.2,0.5-0.5,0.8c-0.1,0.1-0.1,0.1-0.2,0.2c-0.1,0.1-0.1,0.1-0.2,0.2c-0.1,0.1-0.2,0.2-0.2,0.2
	c-0.3,0.3-0.6,0.6-1,0.9c-0.1,0-0.1,0.1-0.2,0.2c-0.1,0.1-0.2,0.2-0.4,0.3c-0.1,0.1-0.2,0.2-0.4,0.3c-0.1,0.1-0.1,0.1-0.2,0.2
	c-0.1,0.1-0.1,0.1-0.2,0.2c-0.1,0.1-0.1,0.1-0.3,0.1c0,0.1,0,0.1,0,0.2c-0.2,0.1-0.2,0.1-0.4,0.3c-0.3,0.2-0.7,0.4-1,0.7
	c-0.3,0.2-0.6,0.4-0.9,0.6c-0.2,0.1-0.4,0.3-0.6,0.4c-0.5,0.3-1,0.6-1.5,0.9c-0.4,0.2-0.7,0.4-1.1,0.6c-0.4,0.3-0.9,0.5-1.3,0.6
	c-0.3,0.1-0.6,0.3-0.9,0.4c-0.6,0.3-1.2,0.5-1.9,0.7c-0.3,0.1-0.7,0.2-1,0.4c-1.7,0.7-3.5,1-5.3,1.3c-0.1,0-0.2,0-0.3,0.1
	c-0.3,0.1-0.7,0.1-1,0.2c-0.1,0-0.2,0-0.4,0.1c-1.3,0.2-2.7,0.2-4,0.2c-0.1,0-0.2,0-0.4,0c-2.6,0-5.1-0.3-7.6-0.9
	c-0.5-0.1-1-0.2-1.5-0.3c-0.4-0.1-0.8-0.2-1.2-0.3c0-0.1,0-0.1,0-0.2c0.2-0.1,0.4-0.3,0.7-0.4c0.1-0.1,0.1-0.1,0.2-0.1
	c0.3-0.2,0.6-0.3,0.9-0.5c0.3-0.1,0.6-0.3,0.9-0.5c0.5-0.3,0.5-0.3,0.7-0.3c0-0.1,0-0.1,0-0.2c0.1,0,0.2-0.1,0.3-0.1
	c0.4-0.2,0.8-0.5,1.1-0.8c0.2-0.2,0.4-0.3,0.7-0.4c0.4-0.3,0.8-0.6,1.2-0.9c0.1-0.1,0.1-0.1,0.2-0.2c0.5-0.4,0.9-0.8,1.4-1.2
	c0.2-0.2,0.4-0.4,0.6-0.6c0.2-0.2,0.4-0.4,0.6-0.6c0.3-0.3,0.5-0.6,0.9-0.8c0.2-0.2,0.4-0.4,0.6-0.7c0.2-0.2,0.3-0.3,0.5-0.5
	c1-1.1,1-1.1,1.9-2.3c0.3-0.5,0.5-0.9,1.1-1.1c0.2,0,0.4-0.1,0.6-0.1c0.9-0.1,1.7-0.4,2.5-0.7c0.1,0,0.1,0,0.2-0.1
	c1-0.3,1.9-0.7,2.8-1.2c0.3-0.1,0.3-0.1,0.5-0.1c0-0.1,0-0.1,0-0.2c0.2-0.1,0.3-0.1,0.5-0.2c0.3-0.1,0.5-0.3,0.8-0.5
	c0.1-0.1,0.2-0.1,0.3-0.2c1.1-0.7,2.4-1.6,3.2-2.7c0.2-0.2,0.3-0.4,0.5-0.5c0.7-0.6,1.4-1.4,1.8-2.2c0.1,0,0.1,0,0.2,0
	c0-0.1,0-0.2,0.1-0.2c0.1-0.3,0.3-0.5,0.5-0.8c0.4-0.6,0.8-1.3,1.1-2c0.1-0.2,0.2-0.3,0.2-0.5c0.6-1.1,0.9-2.2,1.2-3.4
	c0-0.1,0-0.2,0.1-0.2c0.5-1.7,0.7-3.4,0.7-5.2c0-0.3,0-0.6,0-1c0-1.8-0.2-3.6-0.8-5.3c0-0.1-0.1-0.2-0.1-0.3
	c-0.1-0.3-0.2-0.6-0.3-0.8c0-0.1,0-0.1-0.1-0.2c-0.2-0.8-0.6-1.5-0.9-2.2c-0.2-0.3-0.3-0.6-0.4-0.9c-0.2-0.4-0.4-0.7-0.7-1.1
	c-0.2-0.3-0.4-0.5-0.5-0.8c-0.3-0.5-0.7-0.9-1.1-1.3c-0.2-0.2-0.3-0.5-0.5-0.7c-0.1-0.1-0.2-0.2-0.2-0.3c-0.2-0.3-0.4-0.6-0.5-0.9
	c-0.3-0.7-0.7-1.2-1.1-1.8c-0.1-0.1-0.1-0.1-0.2-0.3c-0.5-0.8-1.1-1.5-1.7-2.2c-0.2-0.2-0.4-0.5-0.6-0.7c-0.3-0.4-0.6-0.7-1-1
	C79.2,20.3,79.1,20.1,79,19.9z"/>
<path class="st5" d="M36.9,26.8c0.2,0,0.4,0.1,0.6,0.1c0,0.1,0,0.1,0,0.2c0.1,0,0.1,0,0.2,0c0.9,0,1.7,0.3,2.6,0.5
	c0.8,0.2,1.6,0.4,2.4,0.6c0,0.1,0,0.1,0,0.2c0.1,0,0.1,0,0.2,0c0.7,0,1.3,0,2,0.2c0,0.1,0,0.1,0,0.2c0.1,0,0.2,0,0.3,0
	c0.4,0.1,0.8,0.1,1.2,0.2c0.1,0,0.1,0,0.2,0c0.2,0,0.3,0.1,0.5,0.1c0,0.1,0,0.1,0,0.2c0.1,0,0.2,0,0.3,0c0.4,0,0.7,0.1,1.1,0.2
	c0.3,0.1,0.6,0.1,0.8,0.2c0.1,0,0.1,0,0.2,0c0.2,0,0.4,0.1,0.5,0.1c0-0.2,0-0.3,0-0.5c0.4-0.1,0.4-0.1,0.6,0c0-0.1,0-0.1,0-0.2
	c0.1,0,0.1,0,0.2,0c-0.1,0.4-0.3,0.7-0.5,1c-0.1,0.2-0.1,0.3-0.2,0.5c-0.1,0.3-0.3,0.6-0.5,0.9c-0.4,0.6-0.6,1.1-0.8,1.7
	c-0.1,0.3-0.2,0.6-0.4,0.9c-0.4,1-0.7,2.1-1,3.2c0,0.1-0.1,0.2-0.1,0.3c-0.3,1.4-0.4,2.8-0.4,4.3c0,0.1,0,0.2,0,0.3
	c0,1.4,0.1,2.8,0.4,4.2c0,0.2,0,0.2,0.1,0.3c0.3,1.5,0.7,2.9,1.4,4.3c0.1,0.2,0.2,0.4,0.3,0.7c0.2,0.4,0.4,0.8,0.7,1.2
	c0.1,0.2,0.2,0.4,0.2,0.6c0.1,0,0.1,0,0.2,0c0,0.1,0.1,0.2,0.1,0.3c0.2,0.5,0.5,0.8,0.9,1.2c0.2,0.2,0.2,0.2,0.3,0.5
	c0.1,0.2,0.3,0.4,0.5,0.6c0.2,0.2,0.4,0.4,0.6,0.7c0.2,0.4,0.6,0.6,0.9,0.9c-0.2,0.2-0.2,0.2-0.4,0.3c-0.2,0.2-0.2,0.2-0.4,0.4
	c-0.2,0.2-0.4,0.2-0.7,0.3c-0.1,0.1-0.1,0.1-0.2,0.2c-0.1,0-0.2,0.1-0.3,0.1c0,0.1-0.1,0.1-0.1,0.2c-0.1,0-0.1,0-0.2,0.1
	c-0.3,0.1-0.3,0.1-0.4,0.3c-0.2,0.2-0.4,0.3-0.7,0.4c-0.3,0.1-0.5,0.2-0.7,0.3c-0.4,0.2-0.7,0.3-1.1,0.4c-0.1,0-0.1-0.1-0.2-0.1
	c0,0.1-0.1,0.1-0.1,0.2c-0.2,0.1-0.2,0.1-0.5,0.2c-0.1,0-0.1-0.1-0.2-0.1c0,0.1-0.1,0.1-0.1,0.2c-0.2,0-0.4,0.1-0.6,0.1
	c-0.2,0-0.2,0-0.5,0.1c-0.1,0-0.1-0.1-0.2-0.1c0,0.1,0,0.1,0,0.2c-1.6,0.3-3.1,0.5-4.7,0.5c-0.1,0-0.2,0-0.3,0c-0.2,0-0.5,0-0.7,0
	c-0.1,0-0.1,0-0.2,0c-0.4,0-0.5-0.1-0.8-0.4c-0.2-0.3-0.4-0.6-0.5-0.9c-0.2-0.3-0.4-0.7-0.6-1c-0.4-0.6-0.7-1.2-1-1.9
	c-0.1-0.3-0.3-0.5-0.4-0.8c-0.4-0.8-0.7-1.6-1-2.4c-0.1-0.2-0.1-0.3-0.2-0.5c-0.2-0.5-0.3-0.9-0.4-1.4c-0.1-0.4-0.2-0.7-0.3-1.1
	c-1.5-4.7-1.6-9.8-1-14.7c0-0.1,0-0.2,0-0.2c0.2-1.5,0.5-2.9,1-4.4c0.2-0.6,0.4-1.2,0.6-1.8c0.2-0.6,0.4-1.1,0.6-1.7
	c0.2-0.4,0.4-0.9,0.5-1.3c0.1-0.2,0.2-0.4,0.4-0.5C36.8,26.9,36.8,26.9,36.9,26.8z"/>
<path class="st6" d="M80.6,5.6c0.2,0,0.4,0.1,0.7,0.1c0.8,0.2,1.6,0.4,2.4,0.7c0.1,0,0.2,0.1,0.3,0.1c0.2,0.1,0.4,0.2,0.7,0.2
	C85,6.9,85.3,6.9,85.5,7c0.5,0.2,1,0.4,1.4,0.6c0.5,0.2,1,0.5,1.5,0.7c0.4,0.1,0.7,0.3,1.1,0.5c0.4,0.2,0.8,0.5,1.3,0.7
	c0.5,0.3,1.1,0.6,1.6,1c0.3,0.2,0.6,0.4,1,0.6c0.4,0.3,0.7,0.5,1.1,0.9c0.1,0.1,0.2,0.2,0.4,0.2c0.4,0.3,0.8,0.6,1.2,0.9
	c0.3,0.2,0.5,0.5,0.8,0.7c0.4,0.3,0.8,0.7,1.1,1.1c0.2,0.2,0.4,0.4,0.6,0.5c0.5,0.4,0.9,0.9,1.3,1.4c0.2,0.2,0.3,0.3,0.5,0.5
	c0.1,0.1,0.1,0.2,0.2,0.2c0.1,0.1,0.3,0.3,0.4,0.4c0.4,0.4,0.7,0.8,1,1.3c0.2,0.3,0.4,0.6,0.7,0.8c0.2,0.2,0.3,0.5,0.5,0.8
	c0.1,0.2,0.2,0.3,0.4,0.5c0.3,0.5,0.6,0.9,0.9,1.4c0,0.1,0.1,0.1,0.1,0.2c0.2,0.5,0.2,0.5,0.2,0.7c0.1,0,0.1,0.1,0.2,0.1
	c0.1,0.2,0.1,0.2,0.2,0.4c0,0.1,0.1,0.2,0.1,0.2c0,0.1,0.1,0.2,0.1,0.3c0.1,0.2,0.2,0.3,0.2,0.5c0.1,0.1,0.1,0.1,0.1,0.3
	c0.2,0.4,0.4,0.7,0.5,1.1c0.3,0.6,0.5,1.1,0.7,1.7c0.1,0.2,0.2,0.4,0.3,0.7c0.4,1,0.7,2,1,3c0.1,0.3,0.1,0.5,0.2,0.8
	c0.4,1.5,0.7,2.9,0.9,4.4c0,0.1,0,0.2,0,0.3c0.1,0.8,0.1,1.5,0.1,2.3c0.1,0,0.1,0,0.2,0c0,1.3,0,2.6,0,3.9c-0.1,0-0.1,0-0.2,0
	c0,0.1,0,0.1,0,0.2c0,0.9-0.1,1.8-0.2,2.7c0,0.1,0,0.1,0,0.2c-0.4,3.7-0.4,3.7-1,4.3c0.1-0.7,0.1-1.3,0.2-2
	c0.5-3.8,0.3-7.6-0.4-11.4c0-0.1-0.1-0.3-0.1-0.4c-0.2-1.3-0.6-2.5-1-3.7c-0.1-0.3-0.2-0.6-0.3-0.9c-0.1-0.2-0.1-0.4-0.2-0.6
	c0-0.1-0.1-0.2-0.1-0.3c-0.2-0.5-0.4-1-0.6-1.5c-0.1-0.2-0.2-0.4-0.3-0.7c0-0.1-0.1-0.2-0.1-0.3c-0.1-0.2-0.2-0.4-0.3-0.7
	c-0.2-0.4-0.4-0.8-0.6-1.1c-0.2-0.4-0.5-0.8-0.7-1.2c-0.1-0.3-0.3-0.6-0.5-0.8c-0.3-0.5-0.6-0.9-0.9-1.4c-0.2-0.4-0.5-0.7-0.8-1.1
	c-0.4-0.6-0.4-0.6-0.4-0.8c-0.1,0-0.1,0-0.2-0.1c-0.4-0.2-0.6-0.6-0.8-0.9c-0.1-0.3-0.4-0.4-0.6-0.6c0-0.1,0-0.1,0-0.2
	c-0.1,0-0.1,0-0.2,0c0-0.1,0-0.1,0-0.2c-0.1,0-0.2-0.1-0.3-0.1c-0.2-0.2-0.3-0.3-0.5-0.5c-0.1-0.1-0.3-0.3-0.4-0.4
	c-0.2-0.2-0.4-0.4-0.6-0.7c-0.3-0.3-0.6-0.5-0.9-0.8c-0.2-0.2-0.2-0.2-0.4-0.4c-0.2-0.2-0.5-0.4-0.8-0.6c-0.3-0.2-0.5-0.4-0.7-0.6
	c-0.2-0.1-0.2-0.1-0.4-0.3c-0.3-0.2-0.6-0.4-0.9-0.6c-0.5-0.4-1-0.7-1.5-1c-0.3-0.2-0.6-0.4-0.9-0.6c-0.3-0.2-0.5-0.3-0.8-0.4
	c-0.3-0.1-0.5-0.3-0.8-0.4c-0.6-0.3-1.1-0.6-1.7-0.9c-0.4-0.2-0.8-0.3-1.2-0.5c-0.5-0.2-1-0.4-1.5-0.6c-0.6-0.2-1.1-0.5-1.6-0.8
	c-0.5-0.3-0.9-0.5-1.5-0.6c-0.3-0.1-0.5-0.2-0.8-0.3c-1.2-0.5-2.4-0.9-3.6-1.2c-0.1,0-0.1,0-0.2-0.1c-5.6-1.5-11.9-1.4-17.5,0
	c-0.2,0-0.3,0.1-0.5,0.1c-0.3,0.1-0.7,0.2-1,0.3c-0.1,0-0.2,0.1-0.3,0.1c-0.8,0.2-1.6,0.6-2.5,0.9c-0.1,0.1-0.1,0.1-0.3,0.1
	c-0.1,0.1-0.1,0.1-0.3,0.1c-0.2,0.1-0.2,0.1-0.4,0.1c0.4-0.8,1.2-1.2,2-1.5C56.8,8.2,57,8.1,57.3,8c0.5-0.2,1-0.4,1.5-0.7
	C59,7.2,59.3,7.1,59.5,7c0.4-0.1,0.9-0.3,1.3-0.5c0.9-0.3,1.8-0.7,2.8-0.8c0.5-0.1,1-0.2,1.4-0.3C70.3,4.3,75.4,4.4,80.6,5.6z"/>
<path class="st7" d="M1.9,32.5C1.9,32.5,2,32.5,1.9,32.5c0,0.8-0.1,1.6-0.2,2.3c-0.2,1-0.2,2-0.2,3c0,0.1,0,0.2,0,0.4
	c0,0.3,0,0.5,0,0.8c0,0.4,0,0.8,0,1.1c0,2,0.2,4,0.6,5.9c0,0.1,0,0.1,0.1,0.3c0.1,0.6,0.3,1.2,0.4,1.8c0.1,0.3,0.1,0.6,0.2,0.8
	c0.1,0.6,0.3,1.2,0.5,1.8c0.1,0.2,0.2,0.4,0.2,0.7c0,0.1,0.1,0.2,0.1,0.3c0.1,0.4,0.2,0.7,0.4,1.1c0.2,0.7,0.6,1.4,0.9,2
	C5,55,5.1,55.3,5.2,55.5c0.1,0.3,0.2,0.5,0.4,0.8c0,0.1,0.1,0.2,0.1,0.2C5.8,56.7,5.9,56.9,6,57c0.2,0.4,0.3,0.8,0.4,1.1
	c0.1,0,0.1,0,0.2,0c0.2,0.2,0.3,0.4,0.4,0.7c0.1,0.1,0.2,0.2,0.2,0.4c0.1,0.1,0.1,0.1,0.1,0.2c0.1,0.2,0.2,0.3,0.3,0.5
	C8,60.2,8,60.2,8,60.4c0.1,0,0.1,0,0.2,0c0.1,0.2,0.2,0.3,0.3,0.5c0.1,0.2,0.3,0.3,0.4,0.5c0.1,0.1,0.2,0.3,0.3,0.4
	c0.3,0.4,0.6,0.8,1,1.2c0.1,0.1,0.1,0.1,0.2,0.2c0.3,0.4,0.7,0.7,1,1.1c0.1,0.1,0.1,0.1,0.2,0.2c0.2,0.2,0.4,0.4,0.6,0.6
	c0.2,0.2,0.4,0.4,0.6,0.6c0.2,0.3,0.5,0.4,0.8,0.6c0.2,0.2,0.2,0.2,0.3,0.3c0,0.1,0,0.1,0,0.2c0.1,0,0.1,0.1,0.2,0.1
	c0.6,0.3,1.1,0.7,1.6,1.2c0.2,0.1,0.5,0.3,0.7,0.4c0,0.1,0,0.1,0,0.2c0.1,0,0.1,0.1,0.2,0.1c0.3,0.1,0.5,0.3,0.8,0.5
	c0.4,0.3,0.8,0.6,1.2,0.8c0.2,0.1,0.5,0.3,0.7,0.4c1.7,1,3.5,1.8,5.3,2.4c0.2,0.1,0.2,0.1,0.4,0.2c0,0.1,0,0.1,0,0.2
	c0.1,0,0.1,0,0.2,0c0.6,0.2,1.1,0.4,1.6,0.7c0.5,0.3,1,0.5,1.6,0.7c0.2,0.1,0.5,0.2,0.7,0.3c0.1,0,0.1,0.1,0.2,0.1
	c0.1,0.1,0.3,0.1,0.4,0.2c1.4,0.5,2.8,0.9,4.2,1.2c0.1,0,0.2,0,0.3,0.1c1.3,0.3,2.5,0.5,3.8,0.6c0.1,0,0.2,0,0.2,0
	c3.7,0.4,7.3,0,10.9-0.8c0.3-0.1,0.6-0.1,0.8-0.2c1.2-0.2,2.3-0.7,3.5-1.1c0.3-0.1,0.5-0.2,0.8-0.3c0.7-0.3,1.4-0.6,2.1-0.9
	c0.3-0.1,0.4-0.1,0.6,0c-0.9,0.6-1.8,1.1-2.8,1.6c-0.2,0.1-0.3,0.2-0.5,0.2c-0.8,0.4-1.5,0.7-2.3,1.1c-0.1,0-0.1,0.1-0.2,0.1
	c-0.9,0.4-1.8,0.7-2.8,1c-0.2,0.1-0.5,0.1-0.7,0.2c-2.9,0.9-6.1,1.3-9.1,1.4c-0.1,0-0.2,0-0.3,0c-2.4,0.1-4.7-0.2-7.1-0.6
	c-0.3,0-0.5-0.1-0.8-0.1c-1.5-0.2-3.1-0.6-4.5-1.2c-0.3-0.1-0.6-0.2-0.9-0.3c-0.4-0.1-0.8-0.3-1.2-0.5c-0.2-0.1-0.4-0.2-0.6-0.2
	c-0.1,0-0.2-0.1-0.3-0.1c-0.3-0.1-0.6-0.2-0.9-0.4c-0.6-0.3-1.2-0.6-1.8-0.9c-0.3-0.2-0.6-0.3-0.9-0.5c-0.5-0.2-0.9-0.5-1.3-0.8
	c-0.2-0.1-0.4-0.3-0.6-0.4c-1-0.6-1-0.6-1.4-0.9c-0.3-0.3-0.6-0.4-0.9-0.6c-0.1,0-0.1-0.1-0.2-0.1c0-0.1,0-0.1,0-0.2
	c-0.1,0-0.1-0.1-0.2-0.1c-0.2-0.1-0.4-0.3-0.7-0.4c-0.1,0-0.1-0.1-0.2-0.1c-0.3-0.2-0.5-0.4-0.7-0.7c-0.2-0.2-0.5-0.5-0.7-0.7
	c-0.1-0.1-0.1-0.1-0.2-0.2c-0.3-0.3-0.5-0.5-0.8-0.7c-0.2-0.2-0.4-0.3-0.5-0.5c-0.3-0.3-0.6-0.7-0.9-1c-2.3-2.5-2.3-2.5-2.3-3.1
	c-0.1,0-0.1,0-0.2,0c0-0.1,0-0.3,0-0.4c-0.1,0-0.1,0-0.2,0c-0.2-0.2-0.3-0.4-0.5-0.6C6.8,63,6.8,63,6.7,62.9
	c-0.3-0.4-0.5-0.7-0.7-1.1c-0.2-0.3-0.3-0.6-0.5-0.9c-0.5-0.7-0.8-1.4-1.2-2.2C4.3,58.5,4.1,58.3,4,58c-0.2-0.5-0.4-0.9-0.6-1.4
	c-0.1-0.4-0.3-0.8-0.4-1.2c0-0.1,0-0.1-0.1-0.2c-0.1-0.2-0.2-0.5-0.3-0.7c-0.1-0.2-0.2-0.4-0.2-0.7c-0.2-0.7-0.4-1.5-0.6-2.2
	c0-0.1-0.1-0.2-0.1-0.3c0-0.1-0.1-0.2-0.1-0.3c-0.2-0.7-0.3-1.4-0.4-2.2c0-0.1,0-0.2,0-0.3c0-0.2-0.1-0.4-0.1-0.6
	c0-0.3-0.1-0.6-0.1-0.9c-0.1-0.9-0.3-1.8-0.2-2.8c-0.1,0-0.1,0-0.2,0c0-1.4,0-2.8,0-4.2c0.1,0,0.1,0,0.2,0c0-0.1,0-0.1,0-0.2
	c0-0.9,0.1-1.8,0.2-2.7c0-0.1,0-0.2,0-0.2C1.2,35.6,1.4,34,1.9,32.5z"/>
<path class="st8" d="M51.9,89.5c2,0,2,0,2.6,0.5c0.1,0.2,0.1,0.2,0.2,0.3c0.2,0.3,0.4,0.6,0.7,0.9c0.1,0.1,0.1,0.2,0.2,0.2
	c0.2,0.2,0.2,0.2,0.4,0.5c0.2,0.2,0.3,0.4,0.5,0.6c0.2,0.2,0.4,0.5,0.6,0.7c0.8,0.8,0.8,0.8,0.9,1.4c0.1,0,0.1,0.1,0.2,0.1
	c0.4,0.2,0.6,0.5,0.8,0.9c0.1,0.3,0.4,0.5,0.6,0.7c0.5,0.5,0.5,0.5,0.5,0.8c0.1,0,0.1,0,0.2,0c0.2,0.2,0.3,0.4,0.5,0.5
	c0.1,0.1,0.2,0.2,0.2,0.3c0.2,0.3,0.2,0.3,0.2,0.5c0.1,0,0.1,0,0.2,0c0.1,0.2,0.1,0.2,0.3,0.4c0.2,0.3,0.4,0.5,0.6,0.7
	c0.3,0.3,0.4,0.5,0.6,0.8c0.2,0.3,0.4,0.5,0.6,0.7c0.2,0.2,0.4,0.4,0.5,0.7c0.2,0.3,0.5,0.6,0.8,0.9c0.2,0.2,0.3,0.4,0.4,0.6
	c0.2,0.2,0.3,0.3,0.5,0.5c1.3,1.4,1.3,1.4,1.4,2.1c0.1,0,0.1,0,0.2,0c0-0.1-0.1-0.2-0.1-0.3c-0.2-0.6-0.2-1.2-0.2-1.7
	c0-0.2,0-0.2,0-0.4c0-0.1,0-0.3,0-0.4c0-0.1,0-0.3,0-0.4c0-0.4,0-0.8,0-1.2c0-0.4,0-0.8,0-1.3c0-0.8,0-1.6,0-2.4c0-0.9,0-1.8,0-2.7
	c0-1.9,0-3.7,0-5.6c0.8,0,1.6,0,2.4,0c0,6.6,0,13.3,0,20.1c-2,0-2,0-2.5-0.5c-0.1-0.2-0.2-0.3-0.3-0.5c-0.1-0.1-0.3-0.3-0.4-0.4
	c-0.1-0.1-0.2-0.2-0.3-0.4c-0.3-0.4-0.6-0.7-0.9-1c-0.5-0.5-0.5-0.5-0.5-0.8c-0.1,0-0.1,0-0.2-0.1c-0.3-0.1-0.4-0.3-0.5-0.5
	c-0.1-0.1-0.1-0.1-0.2-0.2c-0.1-0.2-0.1-0.2-0.1-0.4c-0.1,0-0.1-0.1-0.2-0.1c-0.2-0.1-0.4-0.3-0.5-0.5c-0.1-0.1-0.1-0.1-0.2-0.2
	c-0.1-0.1-0.1-0.2-0.2-0.2c-0.1-0.1-0.1-0.2-0.2-0.2c-0.3-0.3-0.5-0.6-0.7-0.9c-0.2-0.2-0.2-0.2-0.4-0.3c0-0.1-0.1-0.1-0.1-0.2
	c-0.2-0.3-0.4-0.5-0.6-0.8c-0.5-0.5-0.5-0.5-0.7-0.8c-0.2-0.3-0.2-0.3-0.4-0.5c-0.3-0.3-0.5-0.5-0.7-0.8c-0.3-0.4-0.6-0.7-0.9-1
	c-0.1-0.2-0.3-0.3-0.4-0.5c-0.1-0.1-0.2-0.2-0.3-0.3c-0.3-0.4-0.6-0.7-1-1.1c0-0.1-0.1-0.1-0.1-0.2c-0.1-0.1-0.2-0.2-0.3-0.3
	c-0.1-0.1-0.2-0.2-0.3-0.3c-0.4-0.4-0.4-0.4-0.4-0.6c-0.1,0-0.1,0-0.2,0c-0.2-0.2-0.2-0.2-0.3-0.5c-0.2-0.3-0.4-0.7-0.7-1
	c0,0.1,0,0.2,0,0.3c0.1,0.9,0.2,1.9,0.2,2.8c0,0.1,0,0.3,0,0.4c0,0.4,0,0.8,0,1.2c0,0.4,0,0.8,0,1.2c0,0.8,0,1.5,0,2.3
	c0,0.9,0,1.8,0,2.6c0,1.8,0,3.6,0,5.4c-0.8,0-1.6,0-2.4,0C51.9,103,51.9,96.4,51.9,89.5z"/>
<path class="st9" d="M62.1,11.1c0.1,0,0.1,0,0.3,0c2.9,0,5.6,0.3,8.4,1c0.1,0,0.2,0.1,0.4,0.1c1.1,0.3,2.1,0.6,3.2,1.1
	c0.3,0.1,0.5,0.2,0.8,0.3c0.5,0.2,1,0.4,1.4,0.6c0.1,0,0.2,0.1,0.3,0.1c1,0.4,1.9,0.9,2.8,1.5c0.2,0.1,0.4,0.2,0.6,0.4
	c0.5,0.2,0.8,0.5,1.2,0.8c0.2,0.1,0.4,0.3,0.6,0.4c0.4,0.2,0.7,0.5,1.1,0.8c0.2,0.2,0.2,0.2,0.5,0.4c0.1,0,0.1,0.1,0.2,0.1
	c0,0.1,0,0.1,0,0.2c0.1,0,0.1,0.1,0.2,0.1c0.2,0.1,0.2,0.1,0.5,0.3c0,0.1,0,0.1,0,0.2c0.1,0,0.1,0,0.2,0.1c0.3,0.2,0.6,0.4,0.9,0.7
	c0.1,0,0.1,0.1,0.2,0.2c0.2,0.1,0.3,0.3,0.4,0.4c0,0.1,0,0.1,0,0.2c0.1,0,0.1,0,0.2,0.1c0.7,0.4,1.3,1.2,1.8,1.8
	c0.1,0.1,0.2,0.2,0.3,0.3c0.8,0.9,1.5,1.8,2.1,2.7c0.2,0.3,0.4,0.5,0.5,0.7c0.1,0.2,0.3,0.5,0.4,0.7c0.1,0.2,0.3,0.5,0.4,0.7
	c0.4,0.6,0.7,1.1,0.9,1.8c0,0-0.1-0.1-0.1-0.1c-0.5-0.5-1.1-0.9-1.8-1.1c0-0.1,0-0.2,0-0.3c-0.1,0-0.1,0-0.2-0.1
	c-0.8-0.3-0.8-0.3-1-0.7c-0.1,0-0.1-0.1-0.2-0.1c-0.3-0.1-0.3-0.3-0.5-0.5c-0.2-0.1-0.2-0.1-0.4-0.2c0-0.1,0-0.1,0-0.2
	c-0.2-0.1-0.4-0.2-0.6-0.3c-0.1,0-0.1-0.1-0.2-0.1c-0.1,0-0.1-0.1-0.2-0.1c-0.2-0.1-0.2-0.1-0.3-0.3c-0.2-0.2-0.3-0.3-0.5-0.4
	c-0.1,0-0.1-0.1-0.2-0.1c-0.1,0-0.1-0.1-0.2-0.1c-0.4-0.2-0.7-0.5-1-0.7c-0.2-0.2-0.2-0.2-0.5-0.3c0-0.1,0-0.1,0-0.2
	c-0.1,0-0.1,0-0.2,0c0-0.1,0-0.1,0-0.2c-0.1,0-0.1,0-0.2,0c-0.3-0.1-0.5-0.2-0.7-0.3c0-0.1,0-0.1,0-0.2c-0.1,0-0.1,0-0.2-0.1
	c-0.2-0.1-0.4-0.3-0.6-0.4c-0.3-0.2-0.6-0.4-0.9-0.5c0-0.1,0-0.1,0-0.2c-0.1,0-0.1,0-0.2,0c-0.2-0.1-0.4-0.1-0.6-0.2
	c-0.1,0-0.1-0.1-0.2-0.1c-0.2-0.1-0.2-0.1-0.4-0.4c0-0.1,0.1-0.1,0.1-0.2c-0.1,0-0.1,0-0.2,0c-0.7-0.1-0.7-0.1-1-0.5
	c-0.3-0.4-0.4-0.4-0.8-0.5c-0.5-0.3-1-0.7-1.4-1.2c-0.2-0.2-0.5-0.4-0.8-0.6c-0.2-0.2-0.4-0.3-0.6-0.5c-0.5-0.4-1-0.7-1.5-1.1
	c-0.2-0.1-0.4-0.3-0.6-0.4c-0.4-0.3-0.9-0.5-1.3-0.7c-0.1-0.1-0.2-0.1-0.4-0.2c-2.3-1.2-2.3-1.2-4.7-2c-0.1,0-0.2-0.1-0.3-0.1
	c-0.2-0.1-0.4-0.1-0.6-0.2c-0.2-0.1-0.5-0.1-0.7-0.2c-3.9-1.1-8.1-1-12.1-0.7c0.4-0.2,0.7-0.3,1.1-0.4c0.1,0,0.2,0,0.2-0.1
	c0.7-0.2,1.5-0.3,2.2-0.4c0.1,0,0.2,0,0.4-0.1C59.3,11.2,60.7,11.1,62.1,11.1z"/>
<path class="st10" d="M10.1,89.5c0.8,0,1.6,0,2.5,0c0,5.9,0,11.8,0,17.9c2.1,0,4.2,0,6.4,0c0,0.7,0,1.4,0,2.2c-2.9,0-5.9,0-8.9,0
	C10.1,103,10.1,96.4,10.1,89.5z"/>
<path class="st11" d="M96.3,89.5c0.1,0,0.2,0,0.4,0c0.1,0,0.1,0,0.2,0c0.2,0,0.4,0,0.6,0c0.1,0,0.3,0,0.4,0c0.4,0,0.7,0,1.1,0
	c0,0.3,0,0.3-0.2,0.5c-0.1,0.1-0.2,0.2-0.3,0.3c-0.2,0.2-0.4,0.5-0.6,0.7c-0.1,0.1-0.2,0.2-0.3,0.4c-0.1,0.1-0.1,0.1-0.2,0.2
	c-0.2,0.2-0.3,0.4-0.5,0.6c-0.3,0.3-0.5,0.6-0.8,1c-0.1,0.2-0.1,0.2-0.4,0.4c-0.2,0.2-0.4,0.5-0.6,0.8c-0.3,0.4-0.5,0.7-0.8,1
	c-0.2,0.2-0.3,0.3-0.4,0.5c-0.2,0.3-0.4,0.5-0.7,0.8C93.1,96.7,93,96.9,93,97c-0.1,0.1-0.2,0.2-0.2,0.3c-0.1,0-0.1,0-0.2,0
	c0,0.1,0,0.1-0.1,0.2c-0.2,0.4-0.5,0.7-0.9,1.1c-0.2,0.2-0.2,0.2-0.4,0.5c0,0.3,0.2,0.5,0.4,0.7c0.1,0.1,0.1,0.1,0.2,0.2
	c0.1,0.1,0.1,0.1,0.2,0.2c0.1,0.1,0.2,0.2,0.3,0.4c0,0.1,0.1,0.1,0.1,0.2c0.1,0.1,0.1,0.1,0.1,0.3c0.1,0,0.1,0,0.2,0
	c0.2,0.2,0.2,0.2,0.3,0.4c0.2,0.3,0.4,0.6,0.7,0.8c0.2,0.2,0.4,0.5,0.6,0.8c0.2,0.2,0.3,0.4,0.5,0.6c0.3,0.3,0.5,0.5,0.7,0.9
	c0.2,0.3,0.4,0.5,0.6,0.7c0.1,0.1,0.2,0.2,0.2,0.3c0.2,0.3,0.5,0.6,0.7,0.8c0.1,0.1,0.2,0.3,0.4,0.4c0.1,0.2,0.3,0.3,0.4,0.5
	c0.3,0.4,0.6,0.7,1,1.1c0,0.1,0.1,0.1,0.1,0.2c0,0.1,0.1,0.1,0.1,0.2c0,0,0.1,0.1,0.1,0.1c0.2,0.2,0.4,0.5,0.5,0.8
	c-0.4,0-0.9,0-1.3,0c-0.1,0-0.3,0-0.4,0c-1.2,0.1-1.2,0.1-1.6-0.2c-0.2-0.2-0.3-0.4-0.4-0.6c-0.1-0.1-0.2-0.3-0.4-0.4
	c-0.1-0.1-0.1-0.1-0.2-0.2c-0.1-0.1-0.3-0.3-0.4-0.4c-0.2-0.2-0.2-0.2-0.2-0.5c-0.1,0-0.1,0-0.2-0.1c-0.3-0.2-0.5-0.5-0.7-0.8
	c-0.4-0.5-0.7-0.9-1.1-1.3c-1-1.1-1-1.1-1.2-1.6c-0.1,0-0.1,0-0.2-0.1c-0.3-0.1-0.3-0.3-0.5-0.5c-0.2-0.3-0.3-0.5-0.6-0.7
	c-0.3-0.2-0.5-0.5-0.7-0.9c-0.2-0.3-0.4-0.5-0.7-0.7c-0.2-0.2-0.3-0.4-0.5-0.6c-0.3-0.4-0.3-0.4-0.6-0.7c-0.1-0.1-0.1-0.1-0.1-0.4
	c0.1-0.3,0.2-0.4,0.4-0.6c0.2-0.3,0.5-0.5,0.7-0.8c0.2-0.3,0.5-0.6,0.8-0.9c0.1-0.1,0.2-0.2,0.2-0.3c0.2-0.3,0.5-0.6,0.7-0.8
	c0.1-0.1,0.2-0.2,0.3-0.4c0.2-0.3,0.5-0.6,0.8-0.9c0.4-0.5,0.9-1,1.3-1.5c0.4-0.5,0.8-1,1.3-1.5c0.2-0.3,0.5-0.5,0.6-0.8
	c0.2-0.3,0.4-0.5,0.7-0.8C96,89.5,96,89.5,96.3,89.5z"/>
<path class="st12" d="M71.6,20.5c0.1,0,0.1,0,0.3,0c2.7,0.4,5.2,1.3,7.6,2.7c0.2,0.1,0.4,0.2,0.6,0.3c1.3,0.8,2.5,2,3.5,3.2
	c0.2,0.2,0.2,0.2,0.5,0.4c0.1,0.2,0.2,0.3,0.3,0.5c0.2,0.3,0.3,0.5,0.5,0.7c0.3,0.4,0.5,0.7,0.7,1.1c0.2,0.5,0.5,1,0.9,1.4
	c0.2,0.2,0.2,0.5,0.3,0.7c0.1,0.3,0.2,0.6,0.4,1c1.1,2.2,1.6,4.8,1.8,7.3c0,0.1,0,0.1,0,0.2c0.2,3-0.3,5.9-1.2,8.7
	c-0.1-0.4,0-0.8,0-1.2c0.3-1.5,0.4-2.9,0.4-4.4c0-0.1,0-0.2,0-0.2c0-1.2-0.1-2.3-0.3-3.5c0-0.2-0.1-0.4-0.1-0.7
	c-0.1-1-0.4-1.8-0.7-2.7c0-0.1-0.1-0.2-0.1-0.3c-0.1-0.3-0.2-0.6-0.4-1c0-0.1-0.1-0.2-0.1-0.3c-0.2-0.6-0.5-1.2-0.9-1.8
	c-0.1-0.2-0.1-0.2-0.1-0.4c-0.1,0-0.1,0-0.2,0c-0.1-0.2-0.2-0.3-0.2-0.5c0-0.1-0.1-0.2-0.1-0.3c-0.1-0.2-0.1-0.2-0.1-0.4
	c-0.1,0-0.1,0-0.2,0c-0.2-0.2-0.2-0.2-0.4-0.5c-0.1-0.1-0.1-0.2-0.2-0.3c-0.1-0.3-0.1-0.3-0.1-0.5c-0.1,0-0.2-0.1-0.3-0.1
	c-0.1-0.2-0.3-0.3-0.4-0.5c-0.8-1-1.6-1.9-2.6-2.7c-0.1-0.1-0.3-0.2-0.4-0.4c0-0.1,0-0.1,0-0.2c-0.1,0-0.1,0-0.2,0
	c-0.3-0.1-0.4-0.2-0.7-0.4c-0.3-0.3-0.6-0.5-1-0.7c-0.3-0.1-0.5-0.3-0.7-0.5c-0.1-0.1-0.2-0.1-0.3-0.2c-0.2-0.1-0.3-0.2-0.5-0.3
	c-0.5-0.3-0.9-0.5-1.4-0.7c-0.2-0.1-0.4-0.2-0.7-0.3c-0.7-0.3-1.3-0.6-2-0.7c-0.3-0.1-0.5-0.1-0.8-0.2c-3.6-1-7.1-0.9-10.8-0.1
	c-0.4,0.1-0.8,0.2-1.3,0.3c1.1-1.2,3.8-1.5,5.4-1.7c0.1,0,0.2,0,0.2,0C67.5,20.1,69.6,20.2,71.6,20.5z"/>
<path class="st13" d="M85.6,89.5c0.8,0,1.6,0,2.4,0c0,6.6,0,13.3,0,20.1c-0.8,0-1.6,0-2.4,0C85.6,103,85.6,96.4,85.6,89.5z"/>
<path class="st14" d="M33.5,89.5c0.8,0,1.6,0,2.4,0c0,6.6,0,13.3,0,20.1c-0.8,0-1.6,0-2.4,0C33.5,103,33.5,96.4,33.5,89.5z"/>
<path class="st15" d="M53.2,57.9c-0.1,0.1-0.2,0.2-0.3,0.3c-0.1,0.1-0.1,0.1-0.2,0.2c-0.2,0.2-0.4,0.2-0.7,0.3
	c-0.1,0.1-0.1,0.1-0.2,0.2c-0.1,0-0.2,0.1-0.3,0.1c0,0.1-0.1,0.1-0.1,0.2c-0.1,0-0.1,0-0.2,0.1c-0.3,0.1-0.3,0.1-0.4,0.3
	c-0.2,0.2-0.4,0.3-0.7,0.4c-0.3,0.1-0.5,0.2-0.7,0.3c-0.4,0.2-0.7,0.3-1.1,0.4c-0.1,0-0.1-0.1-0.2-0.1c0,0.1-0.1,0.1-0.1,0.2
	c-0.2,0.1-0.2,0.1-0.5,0.2c-0.1,0-0.1-0.1-0.2-0.1c0,0.1-0.1,0.1-0.1,0.2c-0.2,0-0.4,0.1-0.6,0.1c-0.2,0-0.2,0-0.5,0.1
	c-0.1,0-0.1,0-0.2-0.1c0,0.1,0,0.1,0,0.2c-1.2,0.3-2.3,0.4-3.6,0.5c-0.1,0-0.2,0-0.3,0c-0.8,0-0.8,0-1.1-0.1c0-0.6,0.1-1.1,0.1-1.7
	c0.3-0.1,0.5-0.1,0.8,0c1.1,0.1,2.2,0,3.3-0.2c0.1,0,0.1,0,0.2,0c1.7-0.2,3.5-0.6,5.1-1.3c0.3-0.1,0.5-0.2,0.8-0.2
	c0.4-0.1,0.8-0.3,1.2-0.4C52.9,57.8,52.9,57.8,53.2,57.9z"/>
<path class="st16" d="M62.1,11.1c0.1,0,0.1,0,0.3,0c1.2,0,2.4,0,3.7,0.2c0.1,0,0.2,0,0.4,0c0.8,0.1,0.8,0.1,1.1,0.3
	c-0.1,0.1-0.1,0.2-0.2,0.3c0.1,0,0.2,0.1,0.3,0.1c0.6,0.3,1.2,0.8,1.8,1.2c0.3,0.2,0.5,0.3,0.8,0.5c0,0.1,0.1,0.2,0.1,0.3
	c0.1,0,0.1,0,0.2,0c0-0.1,0.1-0.1,0.1-0.2c0,0.1,0,0.2,0,0.3c0.1,0,0.1,0,0.2,0c0,0.1,0,0.1,0,0.2c0.1,0,0.1,0.1,0.2,0.1
	c-0.3,0.1-0.4,0.1-0.6,0c-0.1,0-0.2-0.1-0.2-0.1c-0.8-0.4-1.6-0.7-2.5-1c-0.1,0-0.2-0.1-0.3-0.1c-0.2-0.1-0.4-0.1-0.6-0.2
	c-0.2-0.1-0.5-0.1-0.7-0.2c-3.9-1.1-8.1-1-12.1-0.7c0.4-0.2,0.7-0.3,1.1-0.4c0.1,0,0.2,0,0.2-0.1c0.7-0.2,1.5-0.3,2.2-0.4
	c0.1,0,0.2,0,0.4-0.1C59.4,11.2,60.7,11.1,62.1,11.1z"/>
<path class="st17" d="M110,2.2c0.4,0.3,0.7,0.6,1.1,0.9c0.1,0.1,0.1,0.1,0.2,0.1c0.7,0.5,1.2,1.8,1.3,2.6c0.1,1.2-0.1,2.2-0.8,3.3
	c-0.1,0.2-0.1,0.2-0.2,0.4c-0.3,0.5-0.8,0.8-1.2,1.1c-0.1,0.1-0.2,0.2-0.3,0.2c-1.2,0.6-2.7,0.6-4,0.3c-0.7-0.2-1.2-0.7-1.7-1.2
	c-0.1,0-0.1-0.1-0.2-0.1c-0.7-0.5-1.1-1.8-1.3-2.6c-0.1-1.3,0.2-2.3,0.9-3.4c0.1-0.2,0.1-0.2,0.2-0.5c0.2-0.2,0.2-0.2,0.5-0.4
	c0.1-0.1,0.1-0.1,0.3-0.2c0.2-0.2,0.2-0.2,0.4-0.2c0-0.1,0-0.1,0-0.2c0.2-0.1,0.4-0.2,0.6-0.2c0.1,0,0.2-0.1,0.4-0.1
	C107.2,1.6,108.8,1.7,110,2.2z M105.2,2.9c0,0.1,0,0.1,0,0.2c-0.1,0-0.1,0.1-0.2,0.1c-0.9,0.5-1.2,1.3-1.6,2.2
	c-0.4,1.2-0.1,2.4,0.4,3.4c0.3,0.5,0.6,0.9,1.1,1.2c0.1,0,0.1,0,0.2,0c0,0.1,0.1,0.2,0.1,0.3c1,0.7,2.2,0.8,3.4,0.6
	c1-0.2,2.1-0.9,2.7-1.8c0.1-0.3,0.1-0.3,0.3-0.5c0-0.1,0.1-0.2,0.1-0.3c0.5-1.3,0.4-2.5-0.1-3.8c-0.5-1-1.4-1.8-2.4-2.2
	C107.9,2,106.4,2.2,105.2,2.9z"/>
<path class="st18" d="M107.4,4.8c0.1,0,0.1,0,0.2,0c0,0.1,0,0.1,0.1,0.2c0.2,0.5,0.4,1,0.7,1.5c0.1,0.2,0.1,0.2,0.1,0.5
	c0.1,0,0.1,0,0.2,0c0-0.1,0-0.2,0.1-0.4c0.1-0.7,0.5-1.2,0.8-1.8c0.2,0,0.3,0,0.5,0c0.1,0.1,0.1,0.1,0.1,0.4c0,0.1,0,0.3,0,0.4
	c0,0.1,0,0.2,0,0.2c0,0.2,0,0.5,0,0.7c0,0.2,0,0.3,0,0.5c0,0.4,0,0.8,0,1.2c-0.2,0-0.3,0-0.5,0c0-1.2,0-1.2-0.1-2.4
	c-0.1,0.3-0.1,0.3-0.3,0.6c-0.1,0.1-0.1,0.2-0.2,0.3c-0.1,0.3-0.2,0.5-0.3,0.8c-0.1,0-0.3,0-0.4,0c-0.3-0.5-0.5-1.1-0.8-1.6
	c0,0.8-0.1,1.5-0.1,2.3c-0.2,0-0.3,0-0.5,0c0-0.5,0-1,0-1.5c0-0.2,0-0.3,0-0.5c0-0.2,0-0.5,0-0.7c0-0.1,0-0.2,0-0.2
	c0-0.2,0-0.4,0-0.5C107.2,4.8,107.2,4.8,107.4,4.8z"/>
<path class="st19" d="M104.8,4.8c0.6,0,1.2,0,1.9,0c0,0.1,0.1,0.3,0.1,0.4c0,0-0.1,0.1-0.1,0.1c-0.2,0-0.5,0-0.7,0c0,1,0,2,0,3.1
	c-0.2,0-0.3,0-0.5,0c0-1,0-2,0-3c-0.2,0-0.5-0.1-0.7-0.1C104.8,5.1,104.8,4.9,104.8,4.8z"/>
<path class="st20" d="M40.2,59.9c0.3,0,0.5,0.1,0.8,0.1c0,0.2,0,0.5,0,0.7c0,0.1,0,0.1,0,0.2c0,0.3,0,0.6-0.1,0.9c-0.5,0-1,0-1.5,0
	c0,0,0-0.1,0-0.1c0.3,0,0.6,0,0.9,0C40.2,61.1,40.2,60.5,40.2,59.9z"/>
<path class="st21" d="M91.9,27.9c0.6,0.6,0.9,1.1,1.1,1.9c0,0-0.1-0.1-0.1-0.1c-0.5-0.5-1.1-0.9-1.8-1.1c0-0.1,0-0.1,0-0.2
	c0.1,0,0.2-0.1,0.3-0.1C91.7,28.1,91.7,28.1,91.9,27.9z"/>
<path class="st22" d="M71.6,14.3c0.2,0,0.2,0,0.4,0.1c0,0.1,0,0.2,0,0.3c0.3,0.1,0.5,0.2,0.9,0.2c0.3,0,0.5,0.1,0.7,0.2
	c0,0.1,0,0.1,0,0.2c-0.1,0.1-0.1,0.1-0.2,0.2c0.1,0,0.1,0,0.2,0c0,0.1,0.1,0.2,0.1,0.3c-0.5-0.1-0.8-0.3-1.2-0.5
	c-0.4-0.3-0.9-0.5-1.3-0.7C71.4,14.5,71.4,14.5,71.6,14.3z"/>
<path class="st23" d="M37.5,25.1c0,0.1,0.1,0.1,0.1,0.2c0.1,0,0.2,0,0.3,0c0.1,0.2,0.1,0.2,0.1,0.4c-0.1,0.2-0.1,0.2-0.3,0.3
	c-0.1,0-0.2,0-0.3,0c0,0.1,0,0.1,0.1,0.2c0,0.3,0,0.3-0.1,0.6c-0.2,0.1-0.4,0.1-0.6,0.2c-0.1,0.1-0.1,0.2-0.2,0.3
	c-0.1,0-0.1-0.1-0.2-0.1c0-0.1,0-0.1,0.1-0.2c0.1-0.2,0.3-0.5,0.4-0.7c0-0.1,0.1-0.2,0.1-0.3c0-0.1,0.1-0.2,0.1-0.2
	c0-0.1,0.1-0.1,0.1-0.2C37.5,25.4,37.5,25.4,37.5,25.1z"/>
<path class="st24" d="M85.1,24.1c0.3,0.1,0.6,0.2,0.8,0.4c0.5,0.4,1,0.7,1.5,1c0.1,0.1,0.1,0.1,0.2,0.2c0,0.1,0,0.1,0,0.2
	c0.1,0,0.1,0,0.2,0c0.2,0.1,0.4,0.2,0.6,0.3c0.1,0.1,0.1,0.1,0.2,0.1c0.1,0,0.1,0.1,0.2,0.1c0,0.1,0,0.1,0,0.2
	c-0.7-0.4-1.4-0.7-2-1.2c-0.2-0.2-0.2-0.2-0.5-0.2c0,0-0.1-0.1-0.1-0.1c-0.2-0.2-0.5-0.3-0.8-0.5c-0.2-0.2-0.2-0.2-0.4-0.3
	C85.1,24.2,85.1,24.2,85.1,24.1z"/>
<path class="st24" d="M81.6,21.8c0.2,0.1,0.5,0.1,0.7,0.2c0,0.1,0,0.1,0,0.2c0.1,0,0.1,0,0.2,0c0.3,0.1,0.5,0.2,0.8,0.5
	c0.1,0.1,0.3,0.2,0.4,0.3c0.1,0.1,0.2,0.2,0.3,0.2c0,0.1,0,0.1,0,0.2c0.1,0,0.1,0,0.2,0c0.3,0.1,0.4,0.1,0.7,0.3c0,0.1,0,0.1,0,0.2
	c0.1,0,0.1,0,0.2,0c0,0.1,0,0.1,0,0.2c-0.4-0.1-0.7-0.3-1-0.5c-0.1-0.1-0.2-0.1-0.3-0.2c-0.1-0.1-0.2-0.1-0.3-0.2
	c-0.1-0.1-0.2-0.1-0.3-0.2C83.1,23,83,22.9,83,22.9c-0.1,0-0.1-0.1-0.2-0.1c-0.2-0.1-0.2-0.1-0.3-0.3c-0.1,0-0.1,0-0.2,0.1
	c0-0.1-0.1-0.1-0.1-0.2c-0.1,0-0.2-0.1-0.3-0.1c0-0.1,0-0.1,0-0.2C81.8,22,81.7,21.9,81.6,21.8C81.6,21.9,81.6,21.8,81.6,21.8z"/>
<path class="st25" d="M76.8,18.1c0.5,0,0.5,0,0.7,0.1c0,0,0.1,0.1,0.1,0.1c0.1-0.1,0.1-0.1,0.2-0.2c0,0.1,0.1,0.2,0.1,0.2
	c0.1,0.3,0.1,0.3,0.4,0.4c0,0.1,0,0.1,0,0.2c0.1,0,0.3,0.1,0.4,0.1c0,0.2-0.1,0.3-0.1,0.5c-0.4-0.2-0.7-0.5-1-0.8
	C77.3,18.6,77.1,18.4,76.8,18.1C76.8,18.2,76.8,18.2,76.8,18.1z"/>
<path class="st26" d="M22.3,35.8c0.1,0.3,0.1,0.4,0,0.7c0,0.1,0,0.2-0.1,0.3c0,0.1,0,0.2-0.1,0.3c-0.1,0.6-0.2,1.2-0.3,1.8
	c-0.1-0.1-0.1-0.1-0.2-0.2c-0.1,0.1-0.1,0.2-0.2,0.3c0.1-0.6,0.2-1.2,0.3-1.8c0-0.1,0-0.2,0.1-0.2C22,36.5,22.1,36.1,22.3,35.8z"/>
<path class="st24" d="M67.7,12.3c0.4,0.1,0.7,0.2,1,0.5c0.4,0.3,0.8,0.6,1.2,0.8c0.2,0.2,0.2,0.2,0.4,0.3c0,0.1,0,0.1,0,0.2
	c-1.3-0.7-1.3-0.7-1.8-1.1c0-0.1,0-0.1,0-0.2c-0.1,0-0.2-0.1-0.3-0.1C67.9,12.5,67.9,12.5,67.7,12.3z"/>
<path class="st27" d="M79,19.9c0.4,0.1,0.7,0.2,1,0.6c0,0.1,0.1,0.1,0.1,0.2c0.2,0.1,0.4,0.1,0.6,0.2c-0.1,0.1-0.1,0.1-0.2,0.3
	c-0.4,0-0.4,0-0.6-0.2c-0.1-0.1-0.1-0.1-0.3-0.3c-0.1-0.1-0.2-0.2-0.3-0.3C79,20.1,79,20.1,79,19.9z"/>
<path class="st28" d="M57,73.8c-0.2,0.2-0.4,0.3-0.7,0.4c-0.1,0-0.1,0.1-0.2,0.1c-0.4,0.2-0.6,0.4-1,0.3
	C55.5,74.2,56.3,73.5,57,73.8z"/>
<path class="st29" d="M91.6,28.3c0.1,0.1,0.1,0.2,0.2,0.3c0.1,0,0.2,0.1,0.2,0.1c0.4,0.2,0.7,0.5,0.9,0.9c0,0.1,0,0.1,0.1,0.2
	c0,0-0.1-0.1-0.1-0.1c-0.5-0.5-1.1-0.9-1.8-1.1c0-0.1,0-0.1,0-0.2C91.3,28.3,91.3,28.3,91.6,28.3z"/>
<path class="st30" d="M46.2,14.7c0.1,0,0.1,0.1,0.2,0.1c-0.5,0.5-1,0.9-1.5,1.4c-0.2,0.2-0.4,0.4-0.7,0.6c-0.1,0-0.1-0.1-0.2-0.1
	c0.1-0.1,0.3-0.3,0.4-0.4c0.1-0.1,0.1-0.1,0.2-0.2c0.2-0.2,0.2-0.2,0.4-0.2c0-0.1,0-0.1,0-0.2c0.2-0.2,0.4-0.3,0.5-0.5
	c0.1-0.1,0.2-0.2,0.3-0.2C45.9,15,46,14.9,46.2,14.7C46.1,14.8,46.2,14.8,46.2,14.7z"/>
<path class="st31" d="M74.8,16c0,0.1,0,0.1,0,0.2c0.1,0,0.2-0.1,0.3-0.1c-0.1,0.2-0.1,0.4-0.2,0.6c-0.3-0.1-0.6-0.3-0.9-0.5
	C74.2,15.8,74.4,15.9,74.8,16z"/>
<path class="st32" d="M50.6,29.2c0.1,0,0.1,0,0.2,0c-0.1,0.4-0.3,0.7-0.6,1C50,30,50,30,50,29.7c0-0.1,0-0.2,0-0.3
	c0.4-0.1,0.4-0.1,0.6,0C50.6,29.3,50.6,29.2,50.6,29.2z"/>
<path class="st33" d="M83.1,25.9c0.1,0,0.1,0.1,0.2,0.1c0.2,0.1,0.2,0.1,0.5,0.2c0.3,0.2,0.4,0.3,0.5,0.6c0,0.1,0.1,0.2,0.1,0.3
	c0,0.1,0.1,0.1,0.1,0.2c-0.4-0.2-0.6-0.4-0.9-0.8c0-0.1-0.1-0.1-0.1-0.2C83.1,26,83.1,26,83.1,25.9z"/>
<path class="st34" d="M66.3,11.4c0.2,0,0.3,0,0.5,0c0.1,0,0.2,0,0.3,0c0.2,0,0.2,0,0.4,0.2c-0.1,0.1-0.2,0.2-0.3,0.3
	c0-0.1,0-0.1,0-0.2c-0.1,0-0.1,0-0.2,0.1c-0.3,0-0.3,0-0.5-0.2C66.3,11.5,66.3,11.5,66.3,11.4z"/>
<path class="st35" d="M54.5,9.7c-0.2,0.2-0.4,0.4-0.7,0.5c-0.1,0-0.1,0.1-0.2,0.1c-0.1,0-0.1,0-0.2,0.1c-0.1,0-0.1-0.1-0.2-0.1
	C53.5,9.9,53.9,9.5,54.5,9.7z"/>
<path class="st36" d="M87.8,46.7c0.1,0,0.1,0.1,0.2,0.1c-0.1,0.6-0.2,1.3-0.4,1.9c-0.1-0.4-0.1-0.6,0-0.9c0-0.1,0-0.2,0.1-0.3
	C87.7,47.2,87.8,46.9,87.8,46.7z"/>
<path class="st37" d="M21.8,37.6C21.8,37.6,21.9,37.6,21.8,37.6c0.1,0.4,0.1,0.8,0.1,1.2c-0.1-0.1-0.1-0.1-0.2-0.2
	c-0.1,0.1-0.1,0.2-0.2,0.3C21.6,38.5,21.6,38.1,21.8,37.6z"/>
<path class="st38" d="M40.2,59.9c0.1,0,0.3,0.1,0.4,0.1c0,0-0.1,0.1-0.1,0.1c0,0.3-0.1,0.5-0.1,0.8c0,0.1,0,0.2,0,0.2
	c0,0.2,0,0.4-0.1,0.6c0,0-0.1,0-0.1,0C40.2,61.1,40.2,60.5,40.2,59.9z"/>
<path class="st39" d="M95,64.8c0.1,0,0.1,0,0.2,0c-0.1,0.3-0.3,0.6-0.6,0.8c-0.1,0.1-0.1,0.1-0.2,0.2c0,0.1-0.1,0.1-0.1,0.2
	c-0.1,0-0.2-0.1-0.3-0.1c0.1,0,0.1,0,0.2,0c0-0.1,0-0.1,0.1-0.2c0.2-0.3,0.3-0.5,0.6-0.7C94.9,65,95,64.9,95,64.8z"/>
<path class="st40" d="M70.5,13.8c0,0.1,0.1,0.2,0.1,0.3c0.1,0,0.1,0,0.2,0c0,0.1,0,0.1,0,0.2c0.1,0,0.1,0.1,0.2,0.1
	c-0.2,0.1-0.2,0.1-0.4,0.1c-0.3-0.1-0.3-0.1-0.5-0.3c0.1-0.1,0.3-0.1,0.4-0.2C70.5,14,70.5,13.9,70.5,13.8z"/>
<path class="st41" d="M43.7,17c0,0.3,0,0.3-0.2,0.5c-0.1,0.1-0.2,0.2-0.3,0.3c-0.1,0.1-0.2,0.2-0.3,0.3c-0.1,0.1-0.1,0.1-0.2,0.2
	c0-0.4,0.1-0.5,0.4-0.8c0.1-0.1,0.1-0.1,0.2-0.2C43.5,17.1,43.5,17.1,43.7,17z"/>
<path class="st42" d="M38.2,24c0.1,0,0.2,0,0.3,0c0,0.2-0.1,0.5-0.1,0.7c-0.1,0-0.1,0-0.2,0C38.2,24.5,38.2,24.3,38.2,24
	C38.2,24.1,38.2,24,38.2,24z"/>
<path class="st43" d="M36.9,26.8c0.3,0,0.3,0,0.6,0.1c0,0.1-0.1,0.2-0.1,0.3c-0.1,0-0.3,0-0.4,0c0,0.1-0.1,0.1-0.1,0.2
	c-0.1,0-0.1,0-0.2,0C36.7,27.2,36.8,27,36.9,26.8z"/>
<path class="st44" d="M46.2,14.7c0.1,0,0.1,0.1,0.2,0.1c-0.2,0.2-0.5,0.5-0.7,0.7c-0.1,0-0.2-0.1-0.3-0.1
	C45.7,15.2,45.9,15,46.2,14.7z"/>
<path class="st45" d="M91.4,64.6c0.1,0.1,0.2,0.1,0.3,0.2c-0.1,0.3-0.1,0.3-0.3,0.4c-0.1,0-0.1,0.1-0.2,0.1c0-0.1-0.1-0.1-0.1-0.2
	c0.1,0,0.1,0,0.2,0C91.4,65,91.4,64.8,91.4,64.6z"/>
<path class="st46" d="M57.3,25.8c0.1,0,0.1,0.1,0.2,0.1c0,0.1-0.1,0.2-0.1,0.3c-0.2,0-0.4,0.1-0.6,0.1c0.1-0.2,0.1-0.2,0.2-0.4
	C57.1,25.9,57.2,25.8,57.3,25.8z"/>
<path class="st47" d="M88.8,26.7c0.5,0.1,0.5,0.1,0.6,0.4c0,0.1,0,0.1,0.1,0.2c-0.2-0.1-0.5-0.2-0.7-0.3
	C88.8,26.9,88.8,26.8,88.8,26.7z"/>
<path class="st48" d="M19.3,14.6c0.1,0,0.2,0.1,0.3,0.1c-0.3,0.3-0.3,0.3-0.7,0.6c-0.1,0-0.1-0.1-0.2-0.1
	C18.9,15,19.1,14.8,19.3,14.6z"/>
<path class="st49" d="M108,51.1c0.1,0.4,0.1,0.4,0.1,0.4L108,51.1z"/>
<path class="st50" d="M2,32.2c0.1,0,0.1,0,0.2,0.1c-0.1,0.1-0.1,0.1-0.2,0.2C2,32.4,2,32.3,2,32.2z"/>
<path class="st50" d="M0,0"/>
<path class="st50" d="M0,0"/>
<path class="st50" d="M0,0"/>
<path class="st50" d="M0,0"/>
<path class="st50" d="M0,0"/>
<path class="st50" d="M0,0"/>
<path class="st50" d="M0,0"/>
<path class="st50" d="M0,0"/>
<path class="st50" d="M0,0"/>
<path class="st50" d="M0,0"/>
<path class="st50" d="M0,0"/>
<path class="st50" d="M0,0"/>
<path class="st50" d="M0,0"/>
<path class="st50" d="M0,0"/>
<path class="st50" d="M0,0"/>
<path class="st50" d="M0,0"/>
<path class="st50" d="M0,0"/>
<path class="st50" d="M0,0"/>
<path class="st50" d="M0,0"/>
<path class="st50" d="M0,0"/>
<path class="st50" d="M0,0"/>
<path class="st50" d="M0,0"/>
<path class="st50" d="M0,0"/>
<path class="st50" d="M0,0"/>
<path class="st50" d="M0,0"/>
<path class="st50" d="M0,0"/>
<path class="st50" d="M0,0"/>
<path class="st50" d="M0,0"/>
<path class="st50" d="M0,0"/>
</svg>
